<?xml version="1.0" encoding="UTF-8"?>
<svg width="112px" height="24px" viewBox="0 0 112 24" version="1.1" xmlns="http://www.w3.org/2000/svg" xmlns:xlink="http://www.w3.org/1999/xlink">
    <title>Group 8 Copy</title>
    <g id="页面-1" stroke="none" stroke-width="1" fill="none" fill-rule="evenodd">
        <g id="001首页" transform="translate(-1300.000000, -1156.000000)">
            <g id="编组-20" transform="translate(0.000000, 1127.000000)">
                <g id="Group-8-Copy" transform="translate(1300.000000, 29.000000)">
                    <g id="Group-6">
                        <g id="Group-3" transform="translate(0.000000, 0.030567)">
                            <polygon id="Clip-2" points="0 0.12272 15.7544631 0.12272 15.7544631 15.146176 0 15.146176"></polygon>
                            <path d="M14.2808893,6.955856 L10.3344128,3.192496 C10.2557215,3.117616 10.1283725,3.117616 10.049849,3.192496 L8.48441275,4.685296 C8.40588926,4.760176 8.40588926,4.881616 8.48441275,4.956656 L12.3921309,8.683056 C13.3475,9.593936 13.3726678,11.108976 12.4013591,12.004496 C11.4575671,12.874576 9.9475,12.865456 9.01578859,11.976816 L3.32350671,6.548816 C2.3917953,5.660176 2.38206376,4.220176 3.29447987,3.320176 C4.23357383,2.393936 5.82233221,2.418096 6.77770134,3.328976 L7.34598993,3.871056 C7.42468121,3.945936 7.5520302,3.945936 7.63055369,3.871056 L9.19598993,2.378416 C9.27451342,2.303376 9.27451342,2.181936 9.19598993,2.106896 L8.58877517,1.527856 C6.62401007,-0.345744 3.4384396,-0.345744 1.47350671,1.527856 C-0.491258389,3.401456 -0.491258389,6.439216 1.47350671,8.312816 L7.16578859,13.740976 C9.13055369,15.614576 12.3161242,15.614576 14.2808893,13.740976 L14.2808893,13.740816 C16.2456544,11.867216 16.2456544,8.829616 14.2808893,6.955856" id="Fill-1" fill="#EA754B"></path>
                        </g>
                        <path d="M23.3830537,1.43600702 C21.4177852,-0.437912982 18.232047,-0.437912982 16.267953,1.43600702 L12.4161074,5.10912702 L14.2563758,6.86416702 C14.2595638,6.86704702 14.2625839,6.86992702 14.2654362,6.87280702 L18.1174497,3.19968702 C19.0592282,2.30256702 20.5917785,2.30256702 21.5325503,3.19968702 C22.4743289,4.09792702 22.4743289,5.55936702 21.5325503,6.45744702 L20.9263423,7.03536702 C20.8478188,7.11024702 20.8478188,7.23184702 20.9263423,7.30672702 L22.4917785,8.79936702 C22.570302,8.87440702 22.6978188,8.87440702 22.7763423,8.79936702 L23.3830537,8.22096702 C25.3471477,6.34688702 25.3471477,3.31008702 23.3830537,1.43600702" id="Fill-4" fill="#34C69A"></path>
                        <path d="M20.0307637,8.15856702 C19.9520724,8.08352702 19.8247234,8.08352702 19.7461999,8.15856702 L15.7987167,11.922247 C15.6215355,12.091047 15.4233811,12.228487 15.2119717,12.333927 C14.3014012,12.788647 13.1482133,12.651527 12.3834482,11.922247 C12.3804281,11.919367 12.3764012,11.915527 12.3743878,11.912647 C11.4456965,11.017447 11.4456965,9.56944702 12.3743878,8.67424702 L10.5248912,6.91056702 C8.99150191,8.37872702 8.66247506,10.558727 9.53680392,12.333927 C9.77740795,12.823207 10.1104616,13.282887 10.5339516,13.686887 C11.0723744,14.200327 11.7032469,14.572487 12.3743878,14.804647 C12.9279113,14.995527 13.5094549,15.091687 14.0909986,15.091687 C15.378918,15.091687 16.6659986,14.623367 17.6490522,13.686887 L21.5963677,9.92272702 C21.6748912,9.84800702 21.6748912,9.72640702 21.5963677,9.65136702 L20.0307637,8.15856702 Z" id="Fill-6" fill="#34C69A"></path>
                        <path d="M23.3852349,15.703367 L19.5337248,12.030567 L17.6838926,13.794567 L21.5354027,17.467367 C22.4677852,18.356647 22.4765101,19.796967 21.5637584,20.696807 C20.6246644,21.622247 19.0362416,21.597767 18.0813758,20.687207 L17.5127517,20.145287 C17.4342282,20.070247 17.3068792,20.070247 17.2283557,20.145287 L15.6629195,21.637927 C15.584396,21.712967 15.584396,21.834247 15.6629195,21.909287 L16.2072148,22.428327 C18.1781879,24.307687 21.4543624,24.356327 23.4112416,22.463367 C24.3765101,21.529607 24.8588926,20.312487 24.8588926,19.096487 C24.8588926,17.868327 24.3677852,16.640167 23.3852349,15.703367" id="Fill-8" fill="#F6C94A"></path>
                        <path d="M16.3303691,19.2911566 C16.4090604,19.2161166 16.4090604,19.0946766 16.3303691,19.0197966 L12.3838926,15.2562766 C12.2067114,15.0874766 12.0622483,14.8980366 11.9520134,14.6965966 C11.4760067,13.8287566 11.6189597,12.7289166 12.3838926,11.9996366 L12.3931208,11.9906766 C13.3322148,11.1045966 14.8506711,11.1045966 15.7897651,11.9906766 L17.6397651,10.2266766 C16.0986577,8.76507661 13.8125839,8.45099661 11.9520134,9.28491661 C11.438255,9.51419661 10.9578859,9.83099661 10.5338926,10.2353166 C9.99530201,10.7490766 9.60469799,11.3495566 9.36208054,11.9906766 C9.16073826,12.5178766 9.06040268,13.0737166 9.06040268,13.6285966 C9.06040268,14.8565966 9.55201342,16.0841166 10.5338926,17.0204366 L14.4805369,20.7837966 C14.5590604,20.8588366 14.6864094,20.8588366 14.7651007,20.7837966 L16.3303691,19.2911566 Z" id="Fill-10" fill="#F6C94A"></path>
                        <path d="M15.3302013,12.0091745 C15.2778523,11.8670945 15.2176174,11.7270945 15.1491611,11.5888545 C14.9095638,11.0986145 14.5765101,10.6398945 14.1520134,10.2358945 C13.7303691,9.83285452 13.2513423,9.51621452 12.7401007,9.28693452 C12.6003356,9.22357452 12.4573826,9.16789452 12.3135906,9.11813452 C10.5375839,8.50405452 8.4738255,8.87333452 7.04697987,10.2272545 L8.89630872,11.9909345 C9.07147651,11.8258145 9.26661074,11.6915745 9.47399329,11.5878945 C10.3855705,11.1339745 11.5387584,11.2714145 12.3025168,11.9995745 L12.3115772,12.0082145 C13.0731544,12.7422945 13.2110738,13.8475745 12.7231544,14.7150945 C12.616443,14.9069345 12.4795302,15.0862945 12.3115772,15.2475745 L14.1620805,17.0123745 C15.5748322,15.6573345 15.9652685,13.6979745 15.3302013,12.0091745" id="Fill-12" fill="#46AEE2"></path>
                        <path d="M4.92881711,15.647527 L7.04022651,13.634247 L5.19072987,11.870567 L3.07915268,13.883687 C3.00046141,13.958567 3.00046141,14.080167 3.07915268,14.155047 L4.64425336,15.647527 C4.72277685,15.722567 4.85029362,15.722567 4.92881711,15.647527" id="Fill-14" fill="#46AEE2"></path>
                        <path d="M6.73955537,20.561767 C5.79760906,21.459847 4.26505872,21.459847 3.32428691,20.561767 C2.38250839,19.663687 2.38250839,18.203207 3.32428691,17.305127 L3.92630034,16.730887 C4.00499161,16.656007 4.00499161,16.534407 3.92630034,16.459367 L2.36103188,14.966727 C2.28250839,14.891847 2.1551594,14.891847 2.07646812,14.966727 L1.47395134,15.541287 C-0.491317114,17.415367 -0.491317114,20.452167 1.47395134,22.326247 C2.45700503,23.262887 3.74391779,23.732007 5.03083054,23.731208 C6.31891779,23.731208 7.60683725,23.262887 8.58989094,22.326247 L12.4407299,18.653127 L10.591401,16.889607 L6.73955537,20.561767 Z" id="Fill-16" fill="#46AEE2"></path>
                        <g id="Group-29" transform="translate(7.046980, 8.830567)">
                            <path d="M2.55419463,2.77872 C2.34697987,2.88224 2.15167785,3.01664 1.97667785,3.1816 L0.127181208,1.41808 C1.55402685,0.06416 3.61778523,-0.30544 5.39379195,0.3088 C5.53758389,0.35872 5.68053691,0.41424 5.8204698,0.47776 C6.28422819,0.68576 6.72097315,0.9664 7.11291946,1.3176 L5.26107383,3.08352" id="Clip-28"></path>
                            <path d="M2.55419463,2.77872 C3.41879195,2.34816 4.50016779,2.4504 5.26107383,3.08352 L7.11291946,1.3176 C6.72097315,0.9664 6.28422819,0.68576 5.8204698,0.47776 C5.68053691,0.41424 5.53758389,0.35872 5.39379195,0.3088 C3.61778523,-0.30544 1.55402685,0.06416 0.127181208,1.41808 L1.97667785,3.1816 C2.15167785,3.01664 2.34697987,2.88224 2.55419463,2.77872" id="Fill-27"></path>
                        </g>
                    </g>
                    <g id="Group-7" transform="translate(28.000000, 2.000000)">
                        <path d="M13.7323122,6.19782705 C13.5711357,6.19782705 13.4327536,6.09161784 13.3866263,5.94014202 C13.2568594,5.51424837 13.0915548,5.11741694 12.8903533,4.75 C12.648409,4.30983944 12.3377224,3.92886013 11.9582935,3.60688594 C11.5786851,3.28544015 11.1341035,3.03550504 10.6252667,2.85760902 C10.1162504,2.67971299 9.5253894,2.59076498 8.85232482,2.59076498 C7.86875312,2.59076498 7.01871743,2.78574607 6.30257672,3.17517984 C5.586436,3.56496589 5.00401079,4.08561999 4.55548055,4.7373183 C4.10659135,5.38936888 3.77472564,6.13036747 3.55898601,6.95996181 C3.34306689,7.78973228 3.23555604,8.63641167 3.23555604,9.5 C3.23555604,10.3635883 3.34306689,11.21062 3.55898601,12.0402143 C3.77472564,12.8699848 4.10659135,13.6109834 4.55548055,14.2626817 C5.00401079,14.9147323 5.586436,15.4355625 6.30257672,15.8248202 C7.01871743,16.2146062 7.86875312,16.409235 8.85232482,16.409235 C9.57708076,16.409235 10.215146,16.2864691 10.7675974,16.0407613 C11.3198693,15.7954057 11.7942452,15.4565225 12.1914431,15.0246403 C12.5881025,14.5929342 12.8986096,14.0893652 13.1231439,13.5134048 C13.3132174,13.0253356 13.4476508,12.5062667 13.5262647,11.9570788 C13.550854,11.7853474 13.7037743,11.6590589 13.8807454,11.6590589 L16.3310595,11.6590589 C16.5457222,11.6590589 16.7099499,11.8429435 16.6882324,12.0523676 C16.5913111,12.9837678 16.3649819,13.843305 16.0094243,14.6309793 C15.6036113,15.5289139 15.0556469,16.3035542 14.3655314,16.9552525 C13.6752364,17.6073031 12.8643282,18.1110483 11.9326273,18.4664881 C11.0005675,18.8222801 9.97391964,19 8.85232482,19 C7.47155528,19 6.2336549,18.7500649 5.13790577,18.2507231 C4.04197715,17.7513813 3.1145839,17.0695639 2.35536706,16.2057995 C1.59597073,15.3422111 1.01354551,14.3348969 0.608270895,13.1831523 C0.202637309,12.0317599 0,10.8041012 0,9.5 C0,8.21316004 0.202637309,6.99413193 0.608270895,5.84221114 C1.01354551,4.69081875 1.59597073,3.68332839 2.35536706,2.81956393 C3.1145839,1.9559756 4.04197715,1.26993103 5.13790577,0.762134752 C6.2336549,0.253986206 7.47155528,0 8.85232482,0 C9.88758789,0 10.8623649,0.1396748 11.7771943,0.419024399 C12.6916647,0.698550133 13.4984447,1.10506897 14.197355,1.63840478 C14.8962653,2.17191672 15.4612805,2.81956393 15.8927598,3.58152255 C16.2632145,4.23639128 16.5130561,4.97263423 16.6415666,5.78989914 C16.6753096,6.00372664 16.5065947,6.19782705 16.286009,6.19782705 L13.7323122,6.19782705 Z" id="Fill-30" fill="#FFFFFF"></path>
                        <path d="M19.1969729,0.487179487 L21.4258146,0.487179487 C21.6238263,0.487179487 21.7843861,0.64544536 21.7843861,0.84062816 L21.7843861,7.23767821 L21.836353,7.23767821 C22.1979708,6.64347464 22.736276,6.14659752 23.4512687,5.74740012 C24.1660821,5.34855599 24.9631466,5.14895729 25.8417453,5.14895729 C27.305957,5.14895729 28.4603386,5.52254247 29.3047108,6.26953619 C30.1485455,7.01723645 30.57109,8.13781536 30.57109,9.63197944 L30.57109,18.3219416 C30.57109,18.5169478 30.4105303,18.6752137 30.2126977,18.6752137 L27.9834976,18.6752137 C27.7854859,18.6752137 27.6249262,18.5169478 27.6249262,18.321765 L27.6249262,10.3964601 C27.5903413,9.36066651 27.3665253,8.60908025 26.9529406,8.14187798 C26.5397143,7.67502899 25.893533,7.44133954 25.0149343,7.44133954 C24.514977,7.44133954 24.0671658,7.53054072 23.6711423,7.7089431 C23.2745813,7.88734548 22.9385885,8.13357609 22.663164,8.44763493 C22.3873811,8.76204705 22.1723458,9.13139296 22.0171619,9.55567268 C21.861978,9.98030566 21.7843861,10.4305509 21.7843861,10.9057018 L21.7843861,18.321765 C21.7843861,18.5169478 21.6238263,18.6752137 21.4258146,18.6752137 L19.1969729,18.6752137 C18.9989612,18.6752137 18.8384014,18.5169478 18.8384014,18.321765 L18.8384014,0.84062816 C18.8384014,0.64544536 18.9989612,0.487179487 19.1969729,0.487179487" id="Fill-32" fill="#FFFFFF"></path>
                        <path d="M41.3857454,14.0761782 C41.3857454,14.5321063 41.2730188,14.916203 41.0486442,15.2286438 C40.8237304,15.5412602 40.5430824,15.7983784 40.2059813,16.0010521 C39.8688801,16.2035503 39.5098449,16.3473889 39.1299544,16.4315144 C38.7495246,16.5163423 38.394984,16.5583172 38.0668723,16.5583172 C37.8077988,16.5583172 37.5179817,16.5328513 37.1983199,16.4822706 C36.8782986,16.4315144 36.584706,16.3428226 36.3168229,16.2163711 C36.0485803,16.0897439 35.8197111,15.9165755 35.629676,15.6970415 C35.4392812,15.4776831 35.3445333,15.2073929 35.3445333,14.886522 C35.3445333,14.5154218 35.4094365,14.1987659 35.5388834,13.9367302 C35.66851,13.6752213 35.8457803,13.464293 36.0705144,13.3035942 C36.2950687,13.1432465 36.5541421,13.016795 36.8484539,12.9237126 C37.1420465,12.8309814 37.4446285,12.7589743 37.7558403,12.7083936 C38.4126032,12.5905478 39.0691863,12.501856 39.7264886,12.4424941 C40.162293,12.4035048 40.5526111,12.313935 40.8972634,12.1741357 C41.1302677,12.0796483 41.3857454,12.2558024 41.3857454,12.5022073 L41.3857454,14.0761782 Z M42.6541446,5.93304798 C42.1440881,5.62886169 41.3785539,5.37191912 40.7392303,5.23668618 C40.0995472,5.10162887 39.6310216,5.03418803 38.9744384,5.03418803 C38.2310181,5.03418803 37.505037,5.10162887 36.7964954,5.23668618 C36.0874144,5.37191912 35.4522259,5.60831331 34.8907502,5.94586876 C34.328915,6.28377547 33.8666819,6.73109792 33.5036914,7.28836299 C33.1987722,7.75640944 33.0035232,8.32579278 32.918304,8.99616176 C32.8915157,9.20533374 33.0608753,9.39044479 33.2766201,9.39044479 L35.527377,9.39044479 C35.7005121,9.39044479 35.84596,9.26891078 35.8799398,9.10311871 C35.9955431,8.53830168 36.2837421,8.11064948 36.7447166,7.82016211 C37.2801231,7.48260666 37.9633148,7.31347767 38.7928533,7.31347767 C39.0866257,7.31347767 39.3976577,7.33490419 39.7264886,7.37687909 C40.0546004,7.41920524 40.3526877,7.50350629 40.6207505,7.63013349 C40.8886336,7.75693632 41.1133677,7.93853483 41.2949528,8.17457777 C41.476538,8.41132322 41.5673305,8.71533388 41.5673305,9.08660976 C41.5673305,9.50881752 41.4589188,9.82547334 41.2431741,10.036226 C41.0267102,10.2476811 40.7331176,10.403638 40.3616771,10.5047993 C39.9895174,10.6061362 39.5618035,10.6781433 39.0781757,10.7202939 C38.5974245,10.7624444 38.0913233,10.8330465 37.5600519,10.9333296 C37.5528604,10.9347347 37.5454892,10.9357884 37.5382977,10.9366666 C36.9194699,11.004283 36.3045974,11.100878 35.6945792,11.226627 C35.0807854,11.3534299 34.5277597,11.5603187 34.0351426,11.8472935 C33.5425255,12.134444 33.1446562,12.5310102 32.8424338,13.0376946 C32.5398518,13.5442034 32.3888305,14.2028054 32.3888305,15.0133248 C32.3888305,15.6550666 32.5139625,16.2163711 32.7647657,16.6975896 C33.0150296,17.1788081 33.3521307,17.5757255 33.7758893,17.8879906 C34.1991086,18.200607 34.6874108,18.4368256 35.2407961,18.5971732 C35.7936419,18.7573452 36.3727368,18.8376068 36.9779007,18.8376068 C37.7727403,18.8376068 38.5985032,18.7111553 39.4541109,18.4577252 C40.1207621,18.2604959 40.7061495,17.9708867 41.210273,17.5888975 C41.2660071,17.546747 41.3303709,17.5251449 41.3956337,17.5186467 L41.3956337,18.5418507 C41.3956337,18.658994 41.5621167,18.7538327 41.7676136,18.7538327 L44.0798577,18.7538327 C44.2853546,18.7538327 44.4520174,18.658994 44.4520174,18.5418507 L44.4520174,18.0513239 L44.4520174,15.5704143 L44.4520174,11.0627669 L44.4520174,8.83317973 C44.4520174,8.14103298 44.2236875,7.64365679 43.9126556,7.16243829 C43.601264,6.68139543 43.1638415,6.23688301 42.6541446,5.93304798 L42.6541446,5.93304798 Z" id="Fill-34" fill="#FFFFFF"></path>
                        <path d="M50.2357371,1.994881 C50.2357371,2.91730066 49.4589531,3.66497567 48.5006212,3.66497567 C47.5422893,3.66497567 46.7655053,2.91730066 46.7655053,1.994881 C46.7655053,1.07263714 47.5422893,0.324786325 48.5006212,0.324786325 C49.4589531,0.324786325 50.2357371,1.07263714 50.2357371,1.994881 M47.3293266,5.40539012 L49.6008673,5.40539012 C49.8026887,5.40539012 49.9663375,5.56308222 49.9663375,5.7571648 L49.9663375,18.1610458 C49.9663375,18.3553042 49.8026887,18.5128205 49.6008673,18.5128205 L47.3293266,18.5128205 C47.1273226,18.5128205 46.9638564,18.3553042 46.9638564,18.1610458 L46.9638564,5.7571648 C46.9638564,5.56308222 47.1273226,5.40539012 47.3293266,5.40539012" id="Fill-36" fill="#FFFFFF"></path>
                        <path d="M52.9077965,5.38955588 L54.9816335,5.38955588 C55.1796453,5.38955588 55.340205,5.54726246 55.340205,5.74175552 L55.340205,7.31864533 L55.3919927,7.36951275 C55.8398039,6.64205593 56.4257753,6.0708976 57.1493693,5.65621377 C57.8729634,5.24152995 58.6739702,5.03418803 59.5525689,5.03418803 C61.0167806,5.03418803 62.1711622,5.40662903 63.0155344,6.15098298 C63.8593691,6.89604097 64.2819136,8.0126599 64.2819136,9.50154381 L64.2819136,18.1606209 C64.2819136,18.3551139 64.1213539,18.5128205 63.9233421,18.5128205 L61.6943212,18.5128205 C61.4963095,18.5128205 61.3357497,18.3551139 61.3357497,18.1606209 L61.3357497,10.2631469 C61.3011649,9.23118967 61.0773489,8.48225942 60.6637642,8.01670818 C60.2505379,7.55150896 59.6043566,7.31864533 58.7257578,7.31864533 C58.2258006,7.31864533 57.7779894,7.4075313 57.3819659,7.58530323 C56.9854049,7.76289914 56.6494121,8.00843562 56.3739876,8.32138462 C56.0982047,8.63468564 55.8831693,9.00272634 55.7279855,9.42550671 C55.5728016,9.84863911 55.4952097,10.2972932 55.4952097,10.770765 L55.4952097,18.1606209 C55.4952097,18.3551139 55.3346499,18.5128205 55.1366382,18.5128205 L52.9077965,18.5128205 C52.7097848,18.5128205 52.549225,18.3551139 52.549225,18.1606209 L52.549225,5.74175552 C52.549225,5.54726246 52.7097848,5.38955588 52.9077965,5.38955588" id="Fill-38" fill="#FFFFFF"></path>
                        <g id="Group-42" transform="translate(66.099654, 0.324786)">
                            <polygon id="Clip-41" points="0.0733580998 0.0564275641 16.3718785 0.0564275641 16.3718785 18.2249387 0.0733580998 18.2249387"></polygon>
                            <path d="M0.874922324,0.0564275641 L3.85587303,0.0564275641 C3.97819331,0.0564275641 4.09225114,0.117654471 4.15835079,0.218581821 L7.95243502,6.01643463 C8.09235792,6.23028769 8.40920518,6.23328728 8.55343894,6.02243381 L12.5194182,0.212935536 C12.5860567,0.115184221 12.6979591,0.0564275641 12.8179443,0.0564275641 L15.5702405,0.0564275641 C15.8594265,0.0564275641 16.0302438,0.375089793 15.8666113,0.609234188 L10.2788555,8.61037341 C10.1947939,8.73070986 10.1947939,8.88915874 10.2784962,9.0094952 L16.3084731,17.6726614 C16.4717464,17.9069822 16.3007495,18.2249387 16.0117431,18.2249387 L12.9505029,18.2249387 C12.8290807,18.2249387 12.7157413,18.164594 12.6494621,18.0647253 L8.44351234,11.7280051 C8.3023321,11.5152108 7.98566446,11.5143285 7.84286765,11.7257113 L3.56291505,18.0668427 C3.49627654,18.1656527 3.38383528,18.2249387 3.26331118,18.2249387 L0.433419743,18.2249387 C0.144413375,18.2249387 -0.0264039379,17.9069822 0.136689774,17.6726614 L6.16684626,9.0094952 C6.25054854,8.88915874 6.25054854,8.73070986 6.16648702,8.61037341 L0.578551592,0.609234188 C0.414919024,0.375089793 0.585736337,0.0564275641 0.874922324,0.0564275641" id="Fill-40" fill="#F6C94A"></path>
                        </g>
                    </g>
                </g>
            </g>
        </g>
    </g>
</svg>