<?xml version="1.0" encoding="UTF-8"?>
<svg width="32px" height="32px" viewBox="0 0 32 32" version="1.1" xmlns="http://www.w3.org/2000/svg" xmlns:xlink="http://www.w3.org/1999/xlink">
    <title>资源 2 copy</title>
    <g id="页面-1" stroke="none" stroke-width="1" fill="none" fill-rule="evenodd">
        <g id="002-05交易列表" transform="translate(-144.000000, -213.000000)" fill-rule="nonzero">
            <g id="编组-4" transform="translate(96.000000, 72.000000)">
                <g id="资源-2-copy" transform="translate(48.000000, 141.000000)">
                    <path d="M16,0 C24.836556,-1.623249e-15 32,7.163444 32,16 C32,24.836556 24.836556,32 16,32 C7.163444,32 1.082166e-15,24.836556 0,16 C-1.082166e-15,7.163444 7.163444,1.623249e-15 16,0 Z" id="Rectangle-path" fill="#F2F2F2" transform="translate(16.000000, 16.000000) rotate(-90.000000) translate(-16.000000, -16.000000) "></path>
                    <circle id="Oval" fill="#4D4D4D" cx="6.4" cy="21.6" r="1.6"></circle>
                    <circle id="Oval" fill="#4D4D4D" cx="6.4" cy="16" r="1.6"></circle>
                    <circle id="Oval" fill="#4D4D4D" cx="6.4" cy="10.4" r="1.6"></circle>
                    <circle id="Oval" fill="#4D4D4D" cx="11.2" cy="24.8" r="1.6"></circle>
                    <circle id="Oval" fill="#4D4D4D" cx="11.2" cy="19.2" r="1.6"></circle>
                    <circle id="Oval" fill="#4D4D4D" cx="11.2" cy="13.6" r="1.6"></circle>
                    <circle id="Oval" fill="#4D4D4D" cx="11.2" cy="8" r="1.6"></circle>
                    <circle id="Oval" fill="#4D4D4D" cx="16" cy="27.2" r="1.6"></circle>
                    <circle id="Oval" fill="#4D4D4D" cx="16" cy="21.6" r="1.6"></circle>
                    <circle id="Oval" fill="#D64CA8" cx="16" cy="16" r="1.6"></circle>
                    <circle id="Oval" fill="#4D4D4D" cx="16" cy="10.4" r="1.6"></circle>
                    <circle id="Oval" fill="#4D4D4D" cx="16" cy="5.6" r="1.6"></circle>
                    <circle id="Oval" fill="#4D4D4D" cx="20.8" cy="24.8" r="1.6"></circle>
                    <circle id="Oval" fill="#4D4D4D" cx="20.8" cy="19.2" r="1.6"></circle>
                    <circle id="Oval" fill="#4D4D4D" cx="20.8" cy="13.6" r="1.6"></circle>
                    <circle id="Oval" fill="#4D4D4D" cx="20.8" cy="8" r="1.6"></circle>
                    <circle id="Oval" fill="#4D4D4D" cx="26.4" cy="21.6" r="1.6"></circle>
                    <circle id="Oval" fill="#4D4D4D" cx="26.4" cy="16" r="1.6"></circle>
                    <circle id="Oval" fill="#4D4D4D" cx="26.4" cy="10.4" r="1.6"></circle>
                </g>
            </g>
        </g>
    </g>
</svg>