<?xml version="1.0" encoding="UTF-8"?>
<svg width="24px" height="24px" viewBox="0 0 24 24" version="1.1" xmlns="http://www.w3.org/2000/svg" xmlns:xlink="http://www.w3.org/1999/xlink">
    <title>icon_Block height</title>
    <g id="页面-1" stroke="none" stroke-width="1" fill="none" fill-rule="evenodd">
        <g id="006-02-01查询漏块" transform="translate(-128.000000, -86.000000)">
            <g id="编组-3" transform="translate(96.000000, 72.000000)">
                <g id="icon_Block-height" transform="translate(32.000000, 14.000000)">
                    <rect id="矩形" stroke="#979797" fill="#D8D8D8" opacity="0" x="0.5" y="0.5" width="23" height="23"></rect>
                    <path d="M11.5,22.5980532 L2.5,17.2737471 L9.55101939,13.2358359 C11.0613345,12.3709229 12.9127434,12.3536122 14.4389669,13.1901336 L21.5,17.060278 L21.5,17.060278 L11.5,22.5980532 Z" id="路径-3" fill="#FFE403"></path>
                    <g id="编组-12" transform="translate(2.500000, 1.500000)" stroke="#080810" stroke-linecap="round" stroke-linejoin="round">
                        <path d="M0.191785011,7.23243308 C0.191785011,6.97082523 0.191785011,6.6912775 0.191785011,6.16806181 C0.191785011,5.60122967 0.494186356,5.07745518 0.985077387,4.79403911 L8.6888968,0.346236894 C9.17978783,0.0628208258 9.78459052,0.0628208258 10.2754816,0.346236894 L10.3328208,0.379341705 L17.4596521,4.4940197 L17.979301,4.79403911 C18.470192,5.07745518 18.7725933,5.60122967 18.7725933,6.16806181 L18.7725933,15.0636662 C18.7725933,15.6304984 18.470192,16.1542729 17.979301,16.4376889 L10.2754816,20.8854911 C9.78459052,21.1689072 9.17978783,21.1689072 8.6888968,20.8854911 L0.985077387,16.4376889 C0.494186356,16.1542729 0.191785011,15.6304984 0.191785011,15.0636662 C0.191785011,14.6947454 0.191785011,14.5623114 0.191785011,14.3835457 L0.191785011,7.23243308 Z" id="路径"></path>
                        <polyline id="路径-18" points="9.48218918 18.5557932 9.48218918 10.3435765 17.0030696 6.19616583"></polyline>
                        <line x1="9.48218918" y1="10.3435765" x2="1.90981293" y2="6.19616583" id="路径-19"></line>
                    </g>
                </g>
            </g>
        </g>
    </g>
</svg>