<?xml version="1.0" encoding="UTF-8"?>
<svg width="52px" height="52px" viewBox="0 0 52 52" version="1.1" xmlns="http://www.w3.org/2000/svg" xmlns:xlink="http://www.w3.org/1999/xlink">
    <title>邮件</title>
    <defs>
        <path d="M16,0 C7.163444,0 0,7.163444 0,16 C0,24.836556 7.163444,32 16,32 C24.836556,32 32,24.836556 32,16 C32,11.7565362 30.3142906,7.68687356 27.3137085,4.6862915 C24.3131264,1.68570945 20.2434638,0 16,0 Z" id="path-1"></path>
        <filter x="-50.0%" y="-43.8%" width="200.0%" height="200.0%" filterUnits="objectBoundingBox" id="filter-2">
            <feOffset dx="0" dy="2" in="SourceAlpha" result="shadowOffsetOuter1"></feOffset>
            <feGaussianBlur stdDeviation="5" in="shadowOffsetOuter1" result="shadowBlurOuter1"></feGaussianBlur>
            <feComposite in="shadowBlurOuter1" in2="SourceAlpha" operator="out" result="shadowBlurOuter1"></feComposite>
            <feColorMatrix values="0 0 0 0 0   0 0 0 0 0   0 0 0 0 0  0 0 0 0.0445070067 0" type="matrix" in="shadowBlurOuter1"></feColorMatrix>
        </filter>
    </defs>
    <g id="页面-1" stroke="none" stroke-width="1" fill="none" fill-rule="evenodd">
        <g id="001首页" transform="translate(-298.000000, -1144.000000)">
            <g id="编组-20" transform="translate(0.000000, 1127.000000)">
                <g id="编组-25" transform="translate(28.000000, 25.000000)">
                    <g id="邮件" transform="translate(280.000000, 0.000000)">
                        <g id="形状">
                            <use fill="black" fill-opacity="1" filter="url(#filter-2)" xlink:href="#path-1"></use>
                            <path stroke-opacity="0.175359553" stroke="#E9E9E9" stroke-width="1" d="M16,0.5 C20.1108556,0.5 24.0533412,2.13303103 26.9601551,5.03984489 C29.866969,7.94665876 31.5,11.8891444 31.5,16 C31.5,20.2802068 29.7651034,24.1552068 26.9601551,26.9601551 C24.1552068,29.7651034 20.2802068,31.5 16,31.5 C11.7197932,31.5 7.84479319,29.7651034 5.03984489,26.9601551 C2.23489659,24.1552068 0.5,20.2802068 0.5,16 C0.5,11.7197932 2.23489659,7.84479319 5.03984489,5.03984489 C7.84479319,2.23489659 11.7197932,0.5 16,0.5 Z" stroke-linejoin="square" fill-opacity="0.08" fill="#FFFFFF" fill-rule="evenodd"></path>
                        </g>
                        <path d="M18.791587,15.6634799 L24.7571702,22.7762906 L7.34225622,22.707457 L13.3078394,15.6634799 L16.0458891,17.957935 L18.791587,15.6634799 Z M6.57743784,9.94263863 L12.833652,15.2428298 L6.57743784,22.707457 L6.57743784,9.94263863 Z M25.414914,9.94263863 L25.4531549,22.707457 L19.2045889,15.250478 L25.414914,9.94263863 Z M25.3690248,9.27724666 L16.0076482,17.1548757 L6.6462715,9.27724666 L25.3690248,9.27724666 Z" id="形状结合" fill="#FFFFFF" fill-rule="nonzero"></path>
                    </g>
                </g>
            </g>
        </g>
    </g>
</svg>