<?xml version="1.0" encoding="UTF-8"?>
<svg width="52px" height="52px" viewBox="0 0 52 52" version="1.1" xmlns="http://www.w3.org/2000/svg" xmlns:xlink="http://www.w3.org/1999/xlink">
    <title>wechat</title>
    <defs>
        <path d="M16,32.0000072 C7.32009285,32.0028124 0.220964468,25.0843892 2.18124998e-05,16.407294 L2.18124998e-05,15.6363859 C0.199765371,6.84995254 7.44921968,-0.13055195 16.2369257,0.00186017583 C25.0246316,0.134272302 32.0604798,7.33002605 31.9954068,16.1184887 C31.9303339,24.9069513 24.7887032,31.9977299 16,32.0000072 L16,32.0000072 Z" id="path-1"></path>
        <filter x="-50.0%" y="-43.7%" width="200.0%" height="200.0%" filterUnits="objectBoundingBox" id="filter-2">
            <feOffset dx="0" dy="2" in="SourceAlpha" result="shadowOffsetOuter1"></feOffset>
            <feGaussianBlur stdDeviation="5" in="shadowOffsetOuter1" result="shadowBlurOuter1"></feGaussianBlur>
            <feComposite in="shadowBlurOuter1" in2="SourceAlpha" operator="out" result="shadowBlurOuter1"></feComposite>
            <feColorMatrix values="0 0 0 0 0   0 0 0 0 0   0 0 0 0 0  0 0 0 0.0445070067 0" type="matrix" in="shadowBlurOuter1"></feColorMatrix>
        </filter>
    </defs>
    <g id="页面-1" stroke="none" stroke-width="1" fill="none" fill-rule="evenodd">
        <g id="001首页" transform="translate(-242.000000, -1144.000000)">
            <g id="编组-20" transform="translate(0.000000, 1127.000000)">
                <g id="编组-25" transform="translate(28.000000, 25.000000)">
                    <g id="wechat" transform="translate(224.000000, 0.000000)">
                        <g id="形状">
                            <use fill="black" fill-opacity="1" filter="url(#filter-2)" xlink:href="#path-1"></use>
                            <path stroke-opacity="0.175359553" stroke="#E9E9E9" stroke-width="1" d="M15.8186543,0.500952744 L16.2293926,0.501803425 C20.4859375,0.565940546 24.3182043,2.34073064 27.078455,5.1637143 C29.8387057,7.98669797 31.5269402,11.8578752 31.4954205,16.1147866 C31.4639009,20.3716976 29.7185277,24.2174509 26.9167776,26.9992523 C24.1150269,29.7810544 20.2568989,31.4989041 15.9998384,31.5000072 C11.795508,31.501366 7.97402258,29.8264895 5.17686511,27.1005311 C2.38110879,24.3759383 0.608654488,20.6013163 0.500021812,16.4008798 L0.500021812,16.4008798 L0.500021812,15.6421127 C0.598236726,11.3884494 2.40200167,7.57205689 5.24479703,4.8347273 C8.08884809,2.0961886 11.9728477,0.437666305 16.2293926,0.501803425 Z" stroke-linejoin="square" fill-opacity="0.08" fill="#FFFFFF" fill-rule="evenodd"></path>
                        </g>
                        <g id="github" transform="translate(8.056762, 7.000008)" fill="#FFFFFF" fill-rule="nonzero">
                            <path d="M14.7430159,3.29309961 C15.4317822,2.01396784 14.6446152,0.341252616 14.6446152,0.341252616 C12.8734993,0.341252616 11.5943675,1.52198368 11.5943675,1.52198368 C10.9056013,1.12840021 8.64252055,1.12840021 8.64252055,1.12840021 C8.64252055,1.12840021 6.37943979,1.12840021 5.69067356,1.52198368 C5.69067356,1.52198368 4.4115418,0.341252616 2.64042587,0.341252616 C2.64042587,0.341252616 1.85325894,2.01396784 2.54202517,3.29309961 C2.54202517,3.29309961 0.967710642,4.76903277 1.55807617,7.91766182 C2.1128442,10.8764118 4.70670523,11.6566757 6.37942046,11.6566757 C6.37942046,11.6566757 5.69065422,12.2470413 5.78905492,13.2309903 C5.78905492,13.2309903 4.80510593,13.8213558 3.82115693,13.4277723 C2.83720794,13.0341889 2.34522377,12.0502399 2.34522377,12.0502399 C2.34522377,12.0502399 1.36127477,10.7711081 0.377325776,11.2630729 C0.377325776,11.2630729 0.0821430104,11.5582557 1.16449271,12.0502399 C1.16449271,12.0502399 1.95165964,13.2309709 2.2468424,13.9197372 C2.54202517,14.6085034 4.1163397,15.1988689 5.69067356,14.8052855 L5.69067356,17.0683662 C5.69067356,17.0683662 5.69067356,17.2651483 5.29709009,17.363549 C4.90350663,17.4619497 4.90350663,17.6587318 5.10030803,17.6587318 L12.1847331,17.6587318 C12.3815151,17.6587318 12.3815151,17.4619497 11.987951,17.363549 C11.5943675,17.2651483 11.5943675,17.0683662 11.5943675,17.0683662 L11.5943675,14.8052855 C11.5943675,14.8052855 11.6030107,13.6252118 11.5943675,13.2309709 C11.5727306,12.242362 10.9056013,11.6566564 10.9056013,11.6566564 C12.5783165,11.6566564 15.1721776,10.8763924 15.7269456,7.91764249 C16.3173305,4.76903277 14.7430159,3.29309961 14.7430159,3.29309961 Z" id="路径"></path>
                        </g>
                    </g>
                </g>
            </g>
        </g>
    </g>
</svg>