<?xml version="1.0" encoding="UTF-8"?>
<svg width="93px" height="20px" viewBox="0 0 93 20" version="1.1" xmlns="http://www.w3.org/2000/svg" xmlns:xlink="http://www.w3.org/1999/xlink">
    <title>Group 8 Copy</title>
    <g id="页面-1" stroke="none" stroke-width="1" fill="none" fill-rule="evenodd">
        <g id="001首页" transform="translate(-28.000000, -14.000000)">
            <g id="Group-8-Copy" transform="translate(28.000000, 14.000000)">
                <g id="Group-6">
                    <g id="Group-3" transform="translate(0.000000, 0.025473)">
                        <polygon id="Clip-2" points="0 0.102266667 12.997432 0.102266667 12.997432 12.6218133 0 12.6218133"></polygon>
                        <path d="M11.7817336,5.79654667 L8.52589052,2.66041333 C8.46097022,2.59801333 8.3559073,2.59801333 8.29112542,2.66041333 L6.99964052,3.90441333 C6.93485864,3.96681333 6.93485864,4.06801333 6.99964052,4.13054667 L10.223508,7.23588 C11.0116875,7.99494667 11.0324509,9.25748 10.2311212,10.0037467 C9.45249287,10.7288133 8.2066875,10.7212133 7.43802559,9.98068 L2.74189304,5.45734667 C1.97323112,4.71681333 1.9652026,3.51681333 2.71794589,2.76681333 C3.49269841,1.99494667 4.80342408,2.01508 5.59160361,2.77414667 L6.06044169,3.22588 C6.125362,3.28828 6.23042492,3.28828 6.2952068,3.22588 L7.58669169,1.98201333 C7.65147357,1.91948 7.65147357,1.81828 7.58669169,1.75574667 L7.08573951,1.27321333 C5.46480831,-0.28812 2.83671267,-0.28812 1.21564304,1.27321333 C-0.405288171,2.83454667 -0.405288171,5.36601333 1.21564304,6.92734667 L5.91177559,11.4508133 C7.5327068,13.0121467 10.1608024,13.0121467 11.7817336,11.4508133 L11.7817336,11.45068 C13.4026648,9.88934667 13.4026648,7.35801333 11.7817336,5.79654667" id="Fill-1" fill="#EA754B"></path>
                    </g>
                    <path d="M19.2910193,1.19667251 C17.6696728,-0.364927485 15.0414388,-0.364927485 13.4210612,1.19667251 L10.2432886,4.25760585 L11.7615101,5.72013918 C11.7641401,5.72253918 11.7666317,5.72493918 11.7689849,5.72733918 L14.946896,2.66640585 C15.7238633,1.91880585 16.9882173,1.91880585 17.764354,2.66640585 C18.5413213,3.41493918 18.5413213,4.63280585 17.764354,5.38120585 L17.2642324,5.86280585 C17.1994505,5.92520585 17.1994505,6.02653918 17.2642324,6.08893918 L18.5557173,7.33280585 C18.6204992,7.39533918 18.7257005,7.39533918 18.7904824,7.33280585 L19.2910193,6.85080585 C20.9113968,5.28907251 20.9113968,2.75840585 19.2910193,1.19667251" id="Fill-4" fill="#34C69A"></path>
                    <path d="M16.52538,6.79880585 C16.4604597,6.73627251 16.3553968,6.73627251 16.2906149,6.79880585 L13.0339413,9.93520585 C12.8877668,10.0758725 12.7242894,10.1904058 12.5498767,10.2782725 C11.798656,10.6572058 10.847276,10.5429392 10.2163448,9.93520585 C10.2138532,9.93280585 10.210531,9.92960585 10.2088699,9.92720585 C9.44269964,9.18120585 9.44269964,7.97453918 10.2088699,7.22853918 L8.68303521,5.75880585 C7.41798907,6.98227251 7.14654193,8.79893918 7.86786323,10.2782725 C8.06636156,10.6860058 8.34113085,11.0690725 8.69051005,11.4057392 C9.13470887,11.8336058 9.65517867,12.1437392 10.2088699,12.3372058 C10.6655268,12.4962725 11.1453003,12.5764058 11.6250738,12.5764058 C12.6876074,12.5764058 13.7494488,12.1861392 14.5604681,11.4057392 L17.8170033,8.26893918 C17.8817852,8.20667251 17.8817852,8.10533918 17.8170033,8.04280585 L16.52538,6.79880585 Z" id="Fill-6" fill="#34C69A"></path>
                    <path d="M19.2928188,13.0861392 L16.115323,10.0254725 L14.5892114,11.4954725 L17.7667072,14.5561392 C18.5359228,15.2972058 18.5431208,16.4974725 17.7901007,17.2473392 C17.0153482,18.0185392 15.7048993,17.9981392 14.9171351,17.2393392 L14.4480201,16.7877392 C14.3832383,16.7252058 14.2781753,16.7252058 14.2133935,16.7877392 L12.9219086,18.0316058 C12.8571267,18.0941392 12.8571267,18.1952058 12.9219086,18.2577392 L13.3709522,18.6902725 C14.997005,20.2564058 17.699849,20.2969392 19.3142743,18.7194725 C20.1106208,17.9413392 20.5085864,16.9270725 20.5085864,15.9137392 C20.5085864,14.8902725 20.1034228,13.8668058 19.2928188,13.0861392" id="Fill-8" fill="#F6C94A"></path>
                    <path d="M13.4725545,16.0759638 C13.5374748,16.0134305 13.5374748,15.9122305 13.4725545,15.8498305 L10.2167114,12.7135638 C10.0705369,12.5728972 9.95135487,12.4150305 9.86041107,12.2471638 C9.46770554,11.5239638 9.58564178,10.6074305 10.2167114,9.99969717 L10.2243247,9.99223051 C10.9990772,9.25383051 12.2518037,9.25383051 13.0265562,9.99223051 L14.5528062,8.52223051 C13.2813926,7.30423051 11.3953817,7.04249717 9.86041107,7.73743051 C9.4365604,7.92849717 9.04025587,8.19249717 8.69046141,8.52943051 C8.24612416,8.95756384 7.92387584,9.45796384 7.72371644,9.99223051 C7.55760906,10.4315638 7.47483221,10.8947638 7.47483221,11.3571638 C7.47483221,12.3804972 7.88041107,13.4034305 8.69046141,14.1836972 L11.946443,17.3198305 C12.0112248,17.3823638 12.1162878,17.3823638 12.1812081,17.3198305 L13.4725545,16.0759638 Z" id="Fill-10" fill="#F6C94A"></path>
                    <path d="M12.6474161,10.0076454 C12.6042282,9.88924544 12.5545344,9.77257877 12.4980579,9.65737877 C12.3003901,9.24884544 12.0256208,8.86657877 11.6754111,8.5299121 C11.3275545,8.19404544 10.9323574,7.93017877 10.5105831,7.7391121 C10.3952768,7.6863121 10.2773406,7.6399121 10.1587122,7.59844544 C8.69350671,7.0867121 6.99090604,7.39444544 5.81375839,8.5227121 L7.3394547,9.99244544 C7.48396812,9.85484544 7.64495386,9.74297877 7.81604446,9.65657877 C8.56809564,9.2783121 9.51947567,9.39284544 10.1495763,9.99964544 L10.1570512,10.0068454 C10.7853523,10.6185788 10.8991359,11.5396454 10.4966023,12.2625788 C10.4085654,12.4224454 10.2956124,12.5719121 10.1570512,12.7063121 L11.6837164,14.1769788 C12.8492366,13.0477788 13.1713465,11.4149788 12.6474161,10.0076454" id="Fill-12" fill="#46AEE2"></path>
                    <path d="M4.06627412,13.0396058 L5.80818687,11.3618725 L4.28235214,9.89213918 L2.54030096,11.5697392 C2.47538066,11.6321392 2.47538066,11.7334725 2.54030096,11.7958725 L3.83150902,13.0396058 C3.8962909,13.1021392 4.00149224,13.1021392 4.06627412,13.0396058" id="Fill-14" fill="#46AEE2"></path>
                    <path d="M5.56013318,17.1348058 C4.78302747,17.8832058 3.51867345,17.8832058 2.7425367,17.1348058 C1.96556942,16.3864058 1.96556942,15.1693392 2.7425367,14.4209392 L3.23919778,13.9424058 C3.30411808,13.8800058 3.30411808,13.7786725 3.23919778,13.7161392 L1.9478513,12.4722725 C1.88306942,12.4098725 1.7780065,12.4098725 1.7130862,12.4722725 L1.21600986,12.9510725 C-0.405336619,14.5128058 -0.405336619,17.0434725 1.21600986,18.6052058 C2.02702915,19.3857392 3.08873217,19.7766725 4.15043519,19.7760067 C5.21310717,19.7760067 6.27564073,19.3857392 7.08666003,18.6052058 L10.2636021,15.5442725 L8.73790583,14.0746725 L5.56013318,17.1348058 Z" id="Fill-16" fill="#46AEE2"></path>
                    <g id="Group-29" transform="translate(5.813758, 7.358806)">
                        <path d="M2.10721057,2.3156 C1.93625839,2.40186667 1.77513423,2.51386667 1.63075923,2.65133333 L0.104924497,1.18173333 C1.28207215,0.0534666667 2.98467282,-0.254533333 4.44987836,0.257333333 C4.56850671,0.298933333 4.68644295,0.3452 4.80188758,0.398133333 C5.18448826,0.571466667 5.54480285,0.805333333 5.86815856,1.098 L4.34038591,2.5696" id="Clip-28"></path>
                        <path d="M2.10721057,2.3156 C2.82050336,1.9568 3.71263842,2.042 4.34038591,2.5696 L5.86815856,1.098 C5.54480285,0.805333333 5.18448826,0.571466667 4.80188758,0.398133333 C4.68644295,0.3452 4.56850671,0.298933333 4.44987836,0.257333333 C2.98467282,-0.254533333 1.28207215,0.0534666667 0.104924497,1.18173333 L1.63075923,2.65133333 C1.77513423,2.51386667 1.93625839,2.40186667 2.10721057,2.3156" id="Fill-27"></path>
                    </g>
                </g>
                <g id="Group-7" transform="translate(23.750000, 1.875000)">
                    <path d="M11.3746562,5.09689725 C11.2411516,5.09689725 11.1265279,5.00955415 11.08832,4.88498521 C10.9808324,4.53474372 10.8439083,4.20840209 10.6772505,3.90625 C10.4768448,3.54427585 10.219499,3.2309705 9.90521299,2.96618909 C9.5907783,2.70184223 9.22252548,2.49630349 8.8010492,2.35000742 C8.37942424,2.20371134 7.89000628,2.13056331 7.33249797,2.13056331 C6.51779249,2.13056331 5.81369666,2.2909096 5.22050782,2.61116763 C4.62731898,2.93171537 4.14488845,3.35988486 3.77336492,3.89582097 C3.40154404,4.43204678 3.12665528,5.04142062 2.94795528,5.7236528 C2.76910661,6.40602983 2.68005395,7.10231223 2.68005395,7.8125 C2.68005395,8.52268777 2.76910661,9.21925986 2.94795528,9.90149205 C3.12665528,10.5838691 3.40154404,11.1932429 3.77336492,11.729179 C4.14488845,12.2654048 4.62731898,12.6937192 5.22050782,13.0138324 C5.81369666,13.3343801 6.51779249,13.4944367 7.33249797,13.4944367 C7.93282292,13.4944367 8.4613408,13.3934779 8.91894362,13.1914155 C9.37639777,12.9896428 9.76932963,12.710956 10.0983339,12.3557897 C10.4268921,12.0007683 10.6840893,11.586649 10.870074,11.1129973 C11.0275144,10.7116247 11.1388674,10.2847588 11.2039843,9.83312398 C11.224352,9.69189757 11.3510179,9.58804185 11.4976054,9.58804185 L13.527233,9.58804185 C13.705041,9.58804185 13.841073,9.73926274 13.8230841,9.91148653 C13.7428029,10.6774406 13.5553314,11.3842969 13.2608183,12.0320554 C12.924678,12.7704884 12.4707919,13.4075281 11.89916,13.9434642 C11.3273795,14.47969 10.6556935,14.8939542 9.88395334,15.1862566 C9.11191583,15.4788488 8.26152982,15.625 7.33249797,15.625 C6.18878826,15.625 5.16341897,15.4194613 4.25579544,15.0088183 C3.34802324,14.5981754 2.57985112,14.0374703 1.95098175,13.3271377 C1.32196371,12.6169499 0.839533181,11.7885665 0.503838844,10.8414081 C0.167847169,9.89453936 0,8.88495161 0,7.8125 C0,6.75424346 0.167847169,5.75175324 0.503838844,4.80444995 C0.839533181,3.85758121 1.32196371,3.02905295 1.95098175,2.31872034 C2.57985112,1.60853257 3.34802324,1.04435118 4.25579544,0.626755553 C5.16341897,0.208870235 6.18878826,0 7.33249797,0 C8.19002009,0 8.99744079,0.114864145 9.75520609,0.344592434 C10.512674,0.57446557 11.1809407,0.908773825 11.7598573,1.34737235 C12.3387739,1.78611572 12.8067836,2.31872034 13.1641836,2.94533104 C13.4710361,3.48387441 13.6779832,4.08933736 13.7844301,4.76143021 C13.8123799,4.9372752 13.6726311,5.09689725 13.4899171,5.09689725 L11.3746562,5.09689725 Z" id="Fill-30" fill="#FFFFFF"></path>
                    <path d="M15.9011071,0.400641026 L17.7472862,0.400641026 C17.9113019,0.400641026 18.0442957,0.530793881 18.0442957,0.691306053 L18.0442957,5.952038 L18.0873406,5.952038 C18.3868734,5.46338375 18.8327588,5.0547677 19.4249966,4.72648036 C20.0170861,4.39848354 20.6773051,4.23433987 21.4050601,4.23433987 C22.6178861,4.23433987 23.5740756,4.54156453 24.2734804,5.15586858 C24.9724398,5.77075366 25.322439,6.69228237 25.322439,7.92103572 L25.322439,15.0673862 C25.322439,15.2277531 25.1894453,15.357906 25.0255779,15.357906 L23.179102,15.357906 C23.0150862,15.357906 22.8820924,15.2277531 22.8820924,15.067241 L22.8820924,8.5497205 C22.8534453,7.69791654 22.6680556,7.07983573 22.3254779,6.69562334 C21.9831971,6.31170147 21.4479565,6.11952264 20.7202016,6.11952264 C20.3060803,6.11952264 19.9351524,6.19287889 19.6071209,6.33959137 C19.2786441,6.48630385 19.0003368,6.68879613 18.7721991,6.9470682 C18.5437645,7.20563079 18.3656478,7.50936921 18.237107,7.85828345 C18.1085661,8.20748821 18.0442957,8.57775565 18.0442957,8.96850474 L18.0442957,15.067241 C18.0442957,15.2277531 17.9113019,15.357906 17.7472862,15.357906 L15.9011071,15.357906 C15.7370913,15.357906 15.6040976,15.2277531 15.6040976,15.067241 L15.6040976,0.691306053 C15.6040976,0.530793881 15.7370913,0.400641026 15.9011071,0.400641026" id="Fill-32" fill="#FFFFFF"></path>
                    <path d="M34.2803614,11.5758044 C34.2803614,11.9507453 34.1869884,12.2666143 34.001136,12.5235557 C33.8148369,12.7806416 33.5823725,12.9920875 33.3031471,13.15876 C33.0239218,13.3252881 32.7265282,13.4435764 32.4118598,13.5127585 C32.0967447,13.5825183 31.8030741,13.6170372 31.5312948,13.6170372 C31.3167008,13.6170372 31.0766415,13.5960948 30.8118614,13.5544989 C30.5467835,13.5127585 30.3035968,13.4398212 30.0817057,13.3358315 C29.8595168,13.2316973 29.6699414,13.089289 29.5125328,12.9087512 C29.3548263,12.7283578 29.2763454,12.5060797 29.2763454,12.2422056 C29.2763454,11.9370245 29.3301056,11.6766167 29.4373281,11.4611268 C29.5446996,11.2460701 29.6915349,11.0726094 29.8776851,10.9404557 C30.0636864,10.8085909 30.2782804,10.7046011 30.5220627,10.6280531 C30.7652494,10.5517939 31.015882,10.4925775 31.2736629,10.4509816 C31.8176683,10.3540689 32.3615248,10.2811316 32.905977,10.2323142 C33.2669595,10.2002507 33.5902653,10.1265912 33.8757453,10.0116248 C34.0687458,9.93392129 34.2803614,10.0787848 34.2803614,10.2814205 L34.2803614,11.5758044 Z M35.3309933,4.8791513 C34.9085067,4.6289981 34.2744046,4.41769664 33.7448444,4.30648535 C33.2149864,4.19541848 32.8269004,4.13995726 32.2830439,4.13995726 C31.6672589,4.13995726 31.0659192,4.19541848 30.4790248,4.30648535 C29.8916836,4.41769664 29.3655486,4.61209976 28.9004708,4.88969471 C28.4350953,5.16757851 28.0522215,5.53544237 27.7515516,5.99371956 C27.498983,6.37862618 27.3372557,6.84686906 27.2666675,7.39815934 C27.2444784,7.57017577 27.3847612,7.72240526 27.5634654,7.72240526 L29.4277972,7.72240526 C29.5712073,7.72240526 29.6916838,7.62245952 29.7198297,7.48611736 C29.8155854,7.02162967 30.0543044,6.669942 30.4361358,6.43105437 C30.8796201,6.15345942 31.4455168,6.01437309 32.1326345,6.01437309 C32.3759701,6.01437309 32.633602,6.03199358 32.905977,6.06651241 C33.1777564,6.1013201 33.424666,6.17064662 33.646706,6.27478083 C33.8685971,6.37905948 34.0547473,6.52840036 34.2051567,6.72251462 C34.3555661,6.9172066 34.4307708,7.16721537 34.4307708,7.47254092 C34.4307708,7.81975125 34.3409719,8.08015899 34.1622677,8.2534753 C33.9829678,8.42736932 33.7397811,8.55562339 33.432112,8.63881521 C33.1238472,8.72215147 32.7695661,8.78136787 32.3689708,8.81603113 C31.9707583,8.85069439 31.5515479,8.90875536 31.1114888,8.99122503 C31.105532,8.99238047 31.0994263,8.99324705 31.0934695,8.9939692 C30.5808862,9.04957485 30.0715792,9.12901149 29.566293,9.23242355 C29.0578795,9.33670219 28.599801,9.50684103 28.1917597,9.74284007 C27.7837184,9.97898353 27.454158,10.305107 27.2038232,10.7217883 C26.9531905,11.1383252 26.8280976,11.6799386 26.8280976,12.3464842 C26.8280976,12.8742324 26.931746,13.3358315 27.1394897,13.7315704 C27.3467866,14.1273093 27.6260119,14.4537216 27.9770168,14.7105186 C28.3275749,14.9676045 28.7320421,15.1618632 29.1904184,15.293728 C29.648348,15.4254484 30.1280199,15.491453 30.6292852,15.491453 C31.2876614,15.491453 31.9716518,15.3874632 32.6803629,15.1790504 C33.232559,15.0168552 33.7174431,14.7786897 34.1350153,14.4645539 C34.1811805,14.4298906 34.234494,14.4121257 34.288552,14.4067818 L34.288552,15.2482324 C34.288552,15.3445674 34.4264521,15.4225598 34.5966679,15.4225598 L36.5119303,15.4225598 C36.6821461,15.4225598 36.8201951,15.3445674 36.8201951,15.2482324 L36.8201951,14.8448387 L36.8201951,12.804617 L36.8201951,9.09767013 L36.8201951,7.26412807 C36.8201951,6.69492844 36.6310665,6.28590196 36.3734346,5.89016307 C36.1155048,5.49456861 35.753182,5.12901564 35.3309933,4.8791513 L35.3309933,4.8791513 Z" id="Fill-34" fill="#FFFFFF"></path>
                    <path d="M41.6109268,1.64052714 C41.6109268,2.39909593 40.9675063,3.01396026 40.1737073,3.01396026 C39.3799083,3.01396026 38.7364878,2.39909593 38.7364878,1.64052714 C38.7364878,0.882102911 39.3799083,0.267094017 40.1737073,0.267094017 C40.9675063,0.267094017 41.6109268,0.882102911 41.6109268,1.64052714 M39.2035085,4.44522214 L41.0850558,4.44522214 C41.2522271,4.44522214 41.3877796,4.57490314 41.3877796,4.73451052 L41.3877796,14.9350706 C41.3877796,15.0948225 41.2522271,15.224359 41.0850558,15.224359 L39.2035085,15.224359 C39.0361859,15.224359 38.9007847,15.0948225 38.9007847,14.9350706 L38.9007847,4.73451052 C38.9007847,4.57490314 39.0361859,4.44522214 39.2035085,4.44522214" id="Fill-36" fill="#FFFFFF"></path>
                    <path d="M43.824229,4.43220056 L45.5420157,4.43220056 C45.7060315,4.43220056 45.8390252,4.56189347 45.8390252,4.72183842 L45.8390252,6.01862281 L45.8819217,6.06045456 C46.2528496,5.46221705 46.7382175,4.99251448 47.33758,4.65149159 C47.9369426,4.31046871 48.6004271,4.13995726 49.328182,4.13995726 C50.541008,4.13995726 51.4971976,4.44624098 52.1966023,5.05837416 C52.8955618,5.67108633 53.245561,6.58935847 53.245561,7.81376958 L53.245561,14.9347211 C53.245561,15.0946661 53.1125672,15.224359 52.9485515,15.224359 L51.1022239,15.224359 C50.9382082,15.224359 50.8052144,15.0946661 50.8052144,14.9347211 L50.8052144,8.44008793 C50.7765673,7.59143888 50.5911776,6.97554228 50.2485999,6.59268764 C49.906319,6.2101225 49.3710785,6.01862281 48.6433235,6.01862281 C48.2292023,6.01862281 47.8582744,6.09171982 47.5302429,6.23791384 C47.2017661,6.38396311 46.9234588,6.58588456 46.6953211,6.84324393 C46.4668864,7.1008928 46.2887698,7.40355785 46.1602289,7.75123907 C46.0316881,8.09920979 45.9674177,8.46816876 45.9674177,8.85753699 L45.9674177,14.9347211 C45.9674177,15.0946661 45.8344239,15.224359 45.6704081,15.224359 L43.824229,15.224359 C43.6602133,15.224359 43.5272195,15.0946661 43.5272195,14.9347211 L43.5272195,4.72183842 C43.5272195,4.56189347 43.6602133,4.43220056 43.824229,4.43220056" id="Fill-38" fill="#FFFFFF"></path>
                    <g id="Group-42" transform="translate(54.751220, 0.267094)">
                        <polygon id="Clip-41" points="0.0607634863 0.0464042468 13.5610439 0.0464042468 13.5610439 14.987614 0.0607634863 14.987614"></polygon>
                        <path d="M0.724709756,0.0464042468 L3.19387073,0.0464042468 C3.29519024,0.0464042468 3.38966585,0.0967553213 3.44441707,0.179754787 L6.58710732,4.94772585 C6.70300732,5.12359185 6.9654561,5.12605862 7.08492683,4.95265938 L10.37,0.17511146 C10.4251976,0.0947238659 10.5178878,0.0464042468 10.6172732,0.0464042468 L12.8970366,0.0464042468 C13.1365732,0.0464042468 13.2780634,0.308462001 13.1425244,0.501014957 L8.5141122,7.08089918 C8.44448293,7.17986008 8.44448293,7.31016344 8.51381463,7.40912434 L13.5085244,14.5334386 C13.6437659,14.7261367 13.5021268,14.987614 13.262739,14.987614 L10.7270732,14.987614 C10.6264976,14.987614 10.5326171,14.9379885 10.4777171,14.8558596 L6.99387317,9.64474107 C6.87693171,9.4697457 6.61463171,9.46902018 6.49635122,9.64285472 L2.95120976,14.8576009 C2.8960122,14.9388591 2.80287561,14.987614 2.7030439,14.987614 L0.359007317,14.987614 C0.119619512,14.987614 -0.0218707317,14.7261367 0.113221951,14.5334386 L5.10808049,7.40912434 C5.1774122,7.31016344 5.1774122,7.17986008 5.10778293,7.08089918 L0.479221951,0.501014957 C0.343682927,0.308462001 0.485173171,0.0464042468 0.724709756,0.0464042468" id="Fill-40" fill="#F6C94A"></path>
                    </g>
                </g>
            </g>
        </g>
    </g>
</svg>