<?xml version="1.0" encoding="UTF-8"?>
<svg width="112px" height="24px" viewBox="0 0 112 24" version="1.1" xmlns="http://www.w3.org/2000/svg" xmlns:xlink="http://www.w3.org/1999/xlink">
    <title>Group 8 Copy</title>
    <g id="页面-1" stroke="none" stroke-width="1" fill="none" fill-rule="evenodd">
        <g id="001首页" transform="translate(-28.000000, -12.000000)">
            <g id="Group-8-Copy" transform="translate(28.000000, 12.000000)">
                <g id="Group-6">
                    <g id="Group-3" transform="translate(0.000000, 0.030567)">
                        <polygon id="Clip-2" points="0 0.12272 15.5969185 0.12272 15.5969185 15.146176 0 15.146176"></polygon>
                        <path d="M14.1380804,6.955856 L10.2310686,3.192496 C10.1531643,3.117616 10.0270888,3.117616 9.9493505,3.192496 L8.39956862,4.685296 C8.32183037,4.760176 8.32183037,4.881616 8.39956862,4.956656 L12.2682096,8.683056 C13.214025,9.593936 13.2389411,11.108976 12.2773455,12.004496 C11.3429914,12.874576 9.848025,12.865456 8.9256307,11.976816 L3.29027164,6.548816 C2.36787735,5.660176 2.35824312,4.220176 3.26153507,3.320176 C4.19123809,2.393936 5.76410889,2.418096 6.70992433,3.328976 L7.27253003,3.871056 C7.3504344,3.945936 7.4765099,3.945936 7.55424815,3.871056 L9.10403003,2.378416 C9.18176829,2.303376 9.18176829,2.181936 9.10403003,2.106896 L8.50288742,1.527856 C6.55776997,-0.345744 3.4040552,-0.345744 1.45877164,1.527856 C-0.486345805,3.401456 -0.486345805,6.439216 1.45877164,8.312816 L7.0941307,13.740976 C9.03924815,15.614576 12.1929629,15.614576 14.1380804,13.740976 L14.1380804,13.740816 C16.0831978,11.867216 16.0831978,8.829616 14.1380804,6.955856" id="Fill-1" fill="#EA754B"></path>
                    </g>
                    <path d="M23.1492232,1.43600702 C21.2036074,-0.437912982 18.0497265,-0.437912982 16.1052735,1.43600702 L12.2919463,5.10912702 L14.1138121,6.86416702 C14.1169681,6.86704702 14.1199581,6.86992702 14.1227819,6.87280702 L17.9362752,3.19968702 C18.8686359,2.30256702 20.3858607,2.30256702 21.3172248,3.19968702 C22.2495856,4.09792702 22.2495856,5.55936702 21.3172248,6.45744702 L20.7170789,7.03536702 C20.6393406,7.11024702 20.6393406,7.23184702 20.7170789,7.30672702 L22.2668607,8.79936702 C22.344599,8.87440702 22.4708406,8.87440702 22.5485789,8.79936702 L23.1492232,8.22096702 C25.0936762,6.34688702 25.0936762,3.31008702 23.1492232,1.43600702" id="Fill-4" fill="#34C69A"></path>
                    <path d="M19.830456,8.15856702 C19.7525517,8.08352702 19.6264761,8.08352702 19.5487379,8.15856702 L15.6407295,11.922247 C15.4653201,12.091047 15.2691473,12.228487 15.059852,12.333927 C14.1583872,12.788647 13.0167312,12.651527 12.2596137,11.922247 C12.2566238,11.919367 12.2526372,11.915527 12.2506439,11.912647 C11.3312396,11.017447 11.3312396,9.56944702 12.2506439,8.67424702 L10.4196423,6.91056702 C8.90158689,8.37872702 8.57585031,10.558727 9.44143588,12.333927 C9.67963387,12.823207 10.009357,13.282887 10.4286121,13.686887 C10.9616506,14.200327 11.5862144,14.572487 12.2506439,14.804647 C12.7986322,14.995527 13.3743604,15.091687 13.9500886,15.091687 C15.2251288,15.091687 16.4993386,14.623367 17.4725617,13.686887 L21.380404,9.92272702 C21.4581423,9.84800702 21.4581423,9.72640702 21.380404,9.65136702 L19.830456,8.15856702 Z" id="Fill-6" fill="#34C69A"></path>
                    <path d="M23.1513826,15.703367 L19.3383876,12.030567 L17.5070537,13.794567 L21.3200487,17.467367 C22.2431074,18.356647 22.251745,19.796967 21.3481208,20.696807 C20.4184178,21.622247 18.8458792,21.597767 17.9005621,20.687207 L17.3376242,20.145287 C17.2598859,20.070247 17.1338104,20.070247 17.0560721,20.145287 L15.5062903,21.637927 C15.428552,21.712967 15.428552,21.834247 15.5062903,21.909287 L16.0451426,22.428327 C17.996406,24.307687 21.2398188,24.356327 23.1771292,22.463367 C24.132745,21.529607 24.6103037,20.312487 24.6103037,19.096487 C24.6103037,17.868327 24.1241074,16.640167 23.1513826,15.703367" id="Fill-8" fill="#F6C94A"></path>
                    <path d="M16.1670654,19.2911566 C16.2449698,19.2161166 16.2449698,19.0946766 16.1670654,19.0197966 L12.2600537,15.2562766 C12.0846443,15.0874766 11.9416258,14.8980366 11.8324933,14.6965966 C11.3612466,13.8287566 11.5027701,12.7289166 12.2600537,11.9996366 L12.2691896,11.9906766 C13.1988926,11.1045966 14.7021644,11.1045966 15.6318674,11.9906766 L17.4633674,10.2266766 C15.9376711,8.76507661 13.6744581,8.45099661 11.8324933,9.28491661 C11.3238725,9.51419661 10.848307,9.83099661 10.4285537,10.2353166 C9.89534899,10.7490766 9.50865101,11.3495566 9.26845973,11.9906766 C9.06913087,12.5178766 8.96979866,13.0737166 8.96979866,13.6285966 C8.96979866,14.8565966 9.45649329,16.0841166 10.4285537,17.0204366 L14.3357315,20.7837966 C14.4134698,20.8588366 14.5395453,20.8588366 14.6174497,20.7837966 L16.1670654,19.2911566 Z" id="Fill-10" fill="#F6C94A"></path>
                    <path d="M15.1768993,12.0091745 C15.1250738,11.8670945 15.0654413,11.7270945 14.9976695,11.5888545 C14.7604681,11.0986145 14.430745,10.6398945 14.0104933,10.2358945 C13.5930654,9.83285452 13.1188289,9.51621452 12.6126997,9.28693452 C12.4743322,9.22357452 12.3328087,9.16789452 12.1904547,9.11813452 C10.4322081,8.50405452 8.38908725,8.87333452 6.97651007,10.2272545 L8.80734564,11.9909345 C8.98076174,11.8258145 9.17394463,11.6915745 9.37925336,11.5878945 C10.2817148,11.1339745 11.4233708,11.2714145 12.1794916,11.9995745 L12.1884614,12.0082145 C12.9424228,12.7422945 13.0789631,13.8475745 12.5959228,14.7150945 C12.4902785,14.9069345 12.3547349,15.0862945 12.1884614,15.2475745 L14.0204597,17.0123745 C15.4190839,15.6573345 15.8056158,13.6979745 15.1768993,12.0091745" id="Fill-12" fill="#46AEE2"></path>
                    <path d="M4.87952894,15.647527 L6.96982424,13.634247 L5.13882257,11.870567 L3.04836116,13.883687 C2.9704568,13.958567 2.9704568,14.080167 3.04836116,14.155047 L4.59781082,15.647527 C4.67554908,15.722567 4.80179069,15.722567 4.87952894,15.647527" id="Fill-14" fill="#46AEE2"></path>
                    <path d="M6.67215982,20.561767 C5.73963297,21.459847 4.22240814,21.459847 3.29104404,20.561767 C2.35868331,19.663687 2.35868331,18.203207 3.29104404,17.305127 L3.88703733,16.730887 C3.96494169,16.656007 3.96494169,16.534407 3.88703733,16.459367 L2.33742156,14.966727 C2.25968331,14.891847 2.1336078,14.891847 2.05570344,14.966727 L1.45921183,15.541287 C-0.486403943,17.415367 -0.486403943,20.452167 1.45921183,22.326247 C2.43243498,23.262887 3.70647861,23.732007 4.98052223,23.731208 C6.25572861,23.731208 7.53076888,23.262887 8.50399203,22.326247 L12.3163226,18.653127 L10.485487,16.889607 L6.67215982,20.561767 Z" id="Fill-16" fill="#46AEE2"></path>
                    <g id="Group-29" transform="translate(6.976510, 8.830567)">
                        <path d="M2.52865268,2.77872 C2.32351007,2.88224 2.13016107,3.01664 1.95691107,3.1816 L0.125909396,1.41808 C1.53848658,0.06416 3.58160738,-0.30544 5.33985403,0.3088 C5.48220805,0.35872 5.62373154,0.41424 5.7622651,0.47776 C6.22138591,0.68576 6.65376342,0.9664 7.04179027,1.3176 L5.20846309,3.08352" id="Clip-28"></path>
                        <path d="M2.52865268,2.77872 C3.38460403,2.34816 4.45516611,2.4504 5.20846309,3.08352 L7.04179027,1.3176 C6.65376342,0.9664 6.22138591,0.68576 5.7622651,0.47776 C5.62373154,0.41424 5.48220805,0.35872 5.33985403,0.3088 C3.58160738,-0.30544 1.53848658,0.06416 0.125909396,1.41808 L1.95691107,3.1816 C2.13016107,3.01664 2.32351007,2.88224 2.52865268,2.77872" id="Fill-27"></path>
                    </g>
                </g>
                <g id="Group-7" transform="translate(28.500000, 2.250000)">
                    <path d="M13.6495875,6.1162767 C13.4893819,6.1162767 13.3518334,6.01146498 13.305984,5.86198226 C13.1769988,5.44169247 13.01269,5.05008251 12.8127006,4.6875 C12.5722138,4.25313103 12.2633988,3.8771646 11.8862556,3.55942691 C11.508934,3.24221068 11.0670306,2.99556419 10.561259,2.8200089 C10.0553091,2.64445361 9.46800754,2.55667597 8.79899757,2.55667597 C7.82135099,2.55667597 6.976436,2.74909152 6.26460939,3.13340116 C5.55278277,3.51805844 4.97386614,4.03186184 4.5280379,4.67498517 C4.08185285,5.31845613 3.75198633,6.04970474 3.53754633,6.86838336 C3.32292793,7.6872358 3.21606474,8.52277468 3.21606474,9.375 C3.21606474,10.2272253 3.32292793,11.0631118 3.53754633,11.8817905 C3.75198633,12.7006429 4.08185285,13.4318915 4.5280379,14.0750148 C4.97386614,14.7184858 5.55278277,15.232463 6.26460939,15.6165988 C6.976436,16.0012561 7.82135099,16.193324 8.79899757,16.193324 C9.5193875,16.193324 10.153609,16.0721735 10.7027323,15.8296986 C11.2516773,15.5875714 11.7231956,15.2531472 12.1180006,14.8269477 C12.5122705,14.4009219 12.8209071,13.9039788 13.0440888,13.3355968 C13.2330173,12.8539496 13.3666409,12.3417105 13.4447812,11.7997488 C13.4692224,11.6302771 13.6212215,11.5056502 13.7971265,11.5056502 L16.2326796,11.5056502 C16.4460492,11.5056502 16.6092876,11.6871153 16.5877009,11.8937838 C16.4913634,12.8129287 16.2663977,13.6611563 15.912982,14.4384664 C15.5096136,15.3245861 14.9649503,16.0890338 14.2789921,16.7321571 C13.5928554,17.3756281 12.7868322,17.872745 11.860744,18.223508 C10.934299,18.5746185 9.91383578,18.75 8.79899757,18.75 C7.42654591,18.75 6.19610276,18.5033535 5.10695453,18.010582 C4.01762789,17.5178105 3.09582135,16.8449644 2.3411781,15.9925653 C1.58635645,15.1403399 1.00743982,14.1462799 0.604606613,13.0096897 C0.201416602,11.8734472 0,10.6619419 0,9.375 C0,8.10509215 0.201416602,6.90210388 0.604606613,5.76533994 C1.00743982,4.62909745 1.58635645,3.63486354 2.3411781,2.7824644 C3.09582135,1.93023908 4.01762789,1.25322141 5.10695453,0.752106663 C6.19610276,0.250644282 7.42654591,0 8.79899757,0 C9.82802411,0 10.7969289,0.137836973 11.7062473,0.41351092 C12.6152089,0.689358684 13.4171288,1.09052859 14.1118288,1.61684682 C14.8065287,2.14333886 15.3681403,2.7824644 15.7970203,3.53439725 C16.1652434,4.18064929 16.4135799,4.90720484 16.5413162,5.71371626 C16.5748559,5.92473024 16.4071574,6.1162767 16.1879005,6.1162767 L13.6495875,6.1162767 Z" id="Fill-30" fill="#212121"></path>
                    <path d="M19.0813285,0.480769231 L21.2967434,0.480769231 C21.4935623,0.480769231 21.6531549,0.636952658 21.6531549,0.829567263 L21.6531549,7.1424456 L21.7048087,7.1424456 C22.0642481,6.5560605 22.5993105,6.06572124 23.309996,5.67177643 C24.0205033,5.27818025 24.8127662,5.08120785 25.6860721,5.08120785 C27.1414633,5.08120785 28.2888908,5.44987743 29.1281764,6.18704229 C29.9669278,6.9249044 30.3869268,8.03073884 30.3869268,9.50524286 L30.3869268,18.0808635 C30.3869268,18.2733038 30.2273343,18.4294872 30.0306935,18.4294872 L27.8149224,18.4294872 C27.6181035,18.4294872 27.4585109,18.2733038 27.4585109,18.0806891 L27.4585109,10.2596646 C27.4241344,9.23749985 27.2016667,8.49580288 26.7905735,8.03474801 C26.3798365,7.57404176 25.7375478,7.34342717 24.8642419,7.34342717 C24.3672964,7.34342717 23.9221829,7.43145466 23.5285451,7.60750964 C23.1343729,7.78356462 22.8004042,8.02655535 22.5266389,8.33648184 C22.2525174,8.64675695 22.0387774,9.01124305 21.8845284,9.42994014 C21.7302794,9.84898585 21.6531549,10.2933068 21.6531549,10.7622057 L21.6531549,18.0806891 C21.6531549,18.2733038 21.4935623,18.4294872 21.2967434,18.4294872 L19.0813285,18.4294872 C18.8845096,18.4294872 18.7249171,18.2733038 18.7249171,18.0806891 L18.7249171,0.829567263 C18.7249171,0.636952658 18.8845096,0.480769231 19.0813285,0.480769231" id="Fill-32" fill="#212121"></path>
                    <path d="M41.1364337,13.8909653 C41.1364337,14.3408944 41.0243861,14.7199372 40.8013633,15.0282669 C40.5778043,15.3367699 40.298847,15.590505 39.9637766,15.790512 C39.6287062,15.9903457 39.2718338,16.1322917 38.8942318,16.2153102 C38.5160937,16.299022 38.163689,16.3404446 37.8375538,16.3404446 C37.580041,16.3404446 37.2919698,16.3153137 36.9742337,16.2653986 C36.6561402,16.2153102 36.3643162,16.1277855 36.0980469,16.0029978 C35.8314202,15.8780367 35.6039297,15.7071468 35.4150393,15.4905015 C35.2257916,15.2740294 35.1316145,15.0072956 35.1316145,14.6906467 C35.1316145,14.3244294 35.1961267,14.0119401 35.3247937,13.7533521 C35.4536395,13.4952842 35.6298418,13.2871313 35.8532221,13.1285469 C36.0764237,12.9703091 36.3339365,12.8455213 36.6264753,12.7536637 C36.9182993,12.6621527 37.2190585,12.591093 37.5283955,12.5411779 C38.181202,12.4248827 38.8338298,12.3373579 39.4871724,12.278777 C39.9203514,12.2403008 40.3083183,12.1519095 40.6508943,12.0139497 C40.882495,11.9207055 41.1364337,12.0945418 41.1364337,12.3377046 L41.1364337,13.8909653 Z M42.3971919,5.85498156 C41.8902081,5.55479772 41.1292855,5.30123597 40.4938133,5.16778242 C39.8579837,5.03450218 39.3922805,4.96794872 38.7396527,4.96794872 C38.0007107,4.96794872 37.2791031,5.03450218 36.5748297,5.16778242 C35.8700203,5.30123597 35.2386583,5.53451971 34.680565,5.86763365 C34.1221143,6.20109422 33.6626658,6.64253084 33.3018619,7.19246347 C32.9987796,7.65435142 32.8047068,8.21624288 32.720001,8.87779121 C32.6933741,9.08421093 32.8617134,9.26688631 33.0761585,9.26688631 L35.3133566,9.26688631 C35.4854488,9.26688631 35.6300205,9.14695143 35.6637956,8.98334084 C35.7787024,8.4259556 36.0651653,8.00393041 36.5233629,7.71726524 C37.0555441,7.3841513 37.7346201,7.2172477 38.5591614,7.2172477 C38.8511641,7.2172477 39.1603224,7.23839229 39.4871724,7.27981489 C39.8133076,7.32158412 40.1095992,7.40477594 40.3760472,7.529737 C40.6423165,7.65487137 40.8656968,7.83408043 41.046188,8.06701754 C41.2266793,8.30064792 41.3169249,8.60065844 41.3169249,8.9670491 C41.3169249,9.3837015 41.2091663,9.69619079 40.9947212,9.90417036 C40.7795613,10.1128432 40.4877373,10.2667481 40.1185344,10.3665783 C39.7486167,10.4665818 39.3234794,10.5376414 38.842765,10.5792374 C38.3649099,10.6208333 37.8618575,10.6905064 37.3337866,10.78947 C37.3266384,10.7908566 37.3193115,10.7918965 37.3121634,10.792763 C36.6970634,10.8594898 36.085895,10.9548138 35.4795516,11.0789083 C34.8694554,11.2040426 34.3197612,11.4082092 33.8301116,11.6914081 C33.3404621,11.9747802 32.9449896,12.3661284 32.6445878,12.866146 C32.3438286,13.3659902 32.1937171,14.0159263 32.1937171,14.8157811 C32.1937171,15.4490789 32.3180952,16.0029978 32.5673876,16.4778844 C32.8161439,16.9527711 33.1512143,17.3444659 33.5724201,17.6526223 C33.9930899,17.9611254 34.4784505,18.1942358 35.0285021,18.3524736 C35.5780176,18.510538 36.1536239,18.5897436 36.7551423,18.5897436 C37.5451937,18.5897436 38.3659821,18.4649559 39.2164355,18.2148604 C39.8790708,18.0202262 40.4609317,17.7344276 40.9620183,17.3574647 C41.0174167,17.3158688 41.0813928,17.2945509 41.1462624,17.2881382 L41.1462624,18.2978789 C41.1462624,18.4134809 41.3117425,18.5070717 41.5160014,18.5070717 L43.8143164,18.5070717 C44.0185753,18.5070717 44.1842341,18.4134809 44.1842341,18.2978789 L44.1842341,17.8138065 L44.1842341,15.3655404 L44.1842341,10.9172042 L44.1842341,8.71695368 C44.1842341,8.03391413 43.9572798,7.54308236 43.6481215,7.06819568 C43.3386058,6.59348233 42.9038184,6.15481876 42.3971919,5.85498156 L42.3971919,5.85498156 Z" id="Fill-34" fill="#212121"></path>
                    <path d="M49.9331122,1.96863256 C49.9331122,2.87891512 49.1610076,3.61675231 48.2084488,3.61675231 C47.2558899,3.61675231 46.4837854,2.87891512 46.4837854,1.96863256 C46.4837854,1.05852349 47.2558899,0.320512821 48.2084488,0.320512821 C49.1610076,0.320512821 49.9331122,1.05852349 49.9331122,1.96863256 M47.0442102,5.33426657 L49.3020669,5.33426657 C49.5026725,5.33426657 49.6653355,5.48988377 49.6653355,5.68141263 L49.6653355,17.9220847 C49.6653355,18.1137871 49.5026725,18.2692308 49.3020669,18.2692308 L47.0442102,18.2692308 C46.8434231,18.2692308 46.6809416,18.1137871 46.6809416,17.9220847 L46.6809416,5.68141263 C46.6809416,5.48988377 46.8434231,5.33426657 47.0442102,5.33426657" id="Fill-36" fill="#212121"></path>
                    <path d="M52.5890748,5.31864067 L54.6504189,5.31864067 C54.8472378,5.31864067 55.0068303,5.47427217 55.0068303,5.6662061 L55.0068303,7.22234737 L55.058306,7.27254547 C55.5034195,6.55466046 56.085861,5.99101737 56.805096,5.58178991 C57.5243311,5.17256245 58.3205125,4.96794872 59.1938185,4.96794872 C60.6492096,4.96794872 61.7966371,5.33548917 62.6359228,6.07004899 C63.4746741,6.80530359 63.8946732,7.90723017 63.8946732,9.3765235 L63.8946732,17.9216653 C63.8946732,18.1135993 63.7350806,18.2692308 63.5382617,18.2692308 L61.3226687,18.2692308 C61.1258498,18.2692308 60.9662573,18.1135993 60.9662573,17.9216653 L60.9662573,10.1281055 C60.9318808,9.10972665 60.7094131,8.37065074 60.2983198,7.91122517 C59.8875828,7.452147 59.2452942,7.22234737 58.3719882,7.22234737 C57.8750428,7.22234737 57.4299292,7.31006378 57.0362914,7.4854966 C56.6421193,7.66075573 56.3081506,7.90306147 56.0343853,8.21189272 C55.7602637,8.52107136 55.5465237,8.88426942 55.3922747,9.30148689 C55.2380257,9.71905175 55.1609012,10.1618025 55.1609012,10.6290444 L55.1609012,17.9216653 C55.1609012,18.1135993 55.0013087,18.2692308 54.8044898,18.2692308 L52.5890748,18.2692308 C52.3922559,18.2692308 52.2326634,18.1135993 52.2326634,17.9216653 L52.2326634,5.6662061 C52.2326634,5.47427217 52.3922559,5.31864067 52.5890748,5.31864067" id="Fill-38" fill="#212121"></path>
                    <g id="Group-42" transform="translate(65.701463, 0.320513)">
                        <polygon id="Clip-41" points="0.0729161835 0.0556850962 16.2732527 0.0556850962 16.2732527 17.9851368 0.0729161835 17.9851368"></polygon>
                        <path d="M0.869651707,0.0556850962 L3.83264488,0.0556850962 C3.95422829,0.0556850962 4.06759902,0.116106386 4.13330049,0.215705745 L7.90452878,5.93727102 C8.04360878,6.14831022 8.35854732,6.15127034 8.5019122,5.94319126 L12.444,0.210133752 C12.5102371,0.113668639 12.6214654,0.0556850962 12.7407278,0.0556850962 L15.4764439,0.0556850962 C15.7638878,0.0556850962 15.9336761,0.370154401 15.7710293,0.601217949 L10.2169346,8.49707902 C10.1333795,8.6158321 10.1333795,8.77219613 10.2165776,8.89094921 L16.2102293,17.4401264 C16.372519,17.671364 16.2025522,17.9851368 15.9152868,17.9851368 L12.8724878,17.9851368 C12.7517971,17.9851368 12.6391405,17.9255862 12.5732605,17.8270316 L8.3926478,11.5736893 C8.25231805,11.3636948 7.93755805,11.3628242 7.79562146,11.5714257 L3.54145171,17.8291211 C3.47521463,17.9266309 3.36345073,17.9851368 3.24365268,17.9851368 L0.43080878,17.9851368 C0.143543415,17.9851368 -0.026244878,17.671364 0.135866341,17.4401264 L6.12969659,8.89094921 C6.21289463,8.77219613 6.21289463,8.6158321 6.12933951,8.49707902 L0.575066341,0.601217949 C0.412419512,0.370154401 0.582207805,0.0556850962 0.869651707,0.0556850962" id="Fill-40" fill="#F6C94A"></path>
                    </g>
                </g>
            </g>
        </g>
    </g>
</svg>