<?xml version="1.0" encoding="UTF-8"?>
<svg width="33px" height="33px" viewBox="0 0 33 33" version="1.1" xmlns="http://www.w3.org/2000/svg" xmlns:xlink="http://www.w3.org/1999/xlink">
    <title>icon_transfer</title>
    <g id="页面-1" stroke="none" stroke-width="1" fill="none" fill-rule="evenodd">
        <g id="001首页" transform="translate(-132.000000, -511.000000)">
            <g id="编组-9" transform="translate(96.000000, 392.000000)">
                <g id="icon_transfer" transform="translate(36.000000, 119.000000)">
                    <g id="编组-13">
                        <rect id="矩形" fill="#D8D8D8" opacity="0" x="0.428543091" y="0.215710104" width="32" height="32"></rect>
                        <g id="编组-15" transform="translate(14.740295, 16.215710) scale(-1, -1) translate(-14.740295, -16.215710) translate(1.740295, 2.215710)" stroke="#4E3603" stroke-linecap="round" stroke-width="0.8">
                            <path d="M23.2597046,27.6565334 L4.25970459,27.6565334 C2.05056559,27.6565334 0.25970459,25.8656724 0.25970459,23.6565334 L0.25970459,16.916219 L0.25970459,16.916219" id="形状"></path>
                            <path d="M3.25970459,1.5 C3.25970459,0.671572875 2.58813171,4.54747351e-13 1.75970459,4.54747351e-13 C0.931277465,4.54747351e-13 0.25970459,0.671572875 0.25970459,1.5" id="路径"></path>
                            <path d="M6.25970459,1.5 C6.25970459,0.671572875 5.58813171,0 4.75970459,0 C3.93127747,0 3.25970459,0.671572875 3.25970459,1.5" id="路径"></path>
                            <path d="M9.25970459,1.5 C9.25970459,0.671572875 8.58813171,0 7.75970459,0 C6.93127747,0 6.25970459,0.671572875 6.25970459,1.5" id="路径"></path>
                            <path d="M12.2597046,1.5 C12.2597046,0.671572875 11.5881317,0 10.7597046,0 C9.93127747,0 9.25970459,0.671572875 9.25970459,1.5" id="路径"></path>
                            <path d="M15.2597046,1.5 C15.2597046,0.671572875 14.5881317,0 13.7597046,0 C12.9312775,0 12.2597046,0.671572875 12.2597046,1.5" id="路径"></path>
                            <path d="M18.2597046,1.5 C18.2597046,0.671572875 17.5881317,0 16.7597046,0 C15.9312775,0 15.2597046,0.671572875 15.2597046,1.5" id="路径"></path>
                            <path d="M21.2597046,1.5 C21.2597046,0.671572875 20.5881317,0 19.7597046,0 C18.9312775,0 18.2597046,0.671572875 18.2597046,1.5" id="路径"></path>
                            <path d="M25.2531625,1.08852572 L25.2531625,25.6630755 C25.2531625,26.7640319 24.360661,27.6565334 23.2597046,27.6565334 C22.1587482,27.6565334 21.2662467,26.7640319 21.2662467,25.6630755 L21.2662467,2.99472958 L21.2662467,3.85053784" id="路径" transform="translate(23.259705, 14.372530) scale(-1, 1) translate(-23.259705, -14.372530) "></path>
                            <path d="M25.2531625,1.08852572 L25.2531625,24.0930271 C25.2531625,25.0328455 24.8069117,25.3093658 24.2564335,25.3093658 C23.7059553,25.3093658 23.2597046,25.0328455 23.2597046,24.0930271 L23.2597046,2.62989993" id="路径" transform="translate(24.256434, 13.198946) scale(-1, -1) translate(-24.256434, -13.198946) "></path>
                        </g>
                    </g>
                    <ellipse id="椭圆形" stroke="#4E3603" stroke-width="0.8" cx="25.2045126" cy="18.6206187" rx="5.6" ry="2.43267365"></ellipse>
                    <path d="M20.0024307,20.8051037 C19.9474196,20.9494493 19.9187018,21.0981063 19.9187018,21.2499299 C19.9187018,21.845183 20.3601471,22.3917589 21.096909,22.8206685 M22.8442272,23.4834308 C23.5546533,23.6510913 24.3562484,23.7454261 25.2045126,23.7454261 C28.1237854,23.7454261 30.4903235,22.6281544 30.4903235,21.2499299 C30.4903235,21.0967877 30.4611046,20.9468674 30.4051553,20.8013438" id="形状" stroke="#4E3603" stroke-width="0.8" stroke-linecap="round"></path>
                    <path d="M20.0024307,23.8038583 C19.9474196,23.9482038 19.9187018,24.0968608 19.9187018,24.2486844 C19.9187018,25.6269089 22.2852399,26.7441806 25.2045126,26.7441806 C25.8384916,26.7441806 26.446402,26.6914868 27.0096662,26.5948701 M28.6777467,26.1298753 C29.7884853,25.6724015 30.4903235,24.999238 30.4903235,24.2486844 C30.4903235,24.0955422 30.4611046,23.9456219 30.4051553,23.8000983" id="形状" stroke="#4E3603" stroke-width="0.8" stroke-linecap="round"></path>
                    <g id="编组-16" transform="translate(8.042877, 4.273385)">
                        <path d="M11.6624199,11.5434411 L7.48384787,6.80957116 L10.0249199,6.83185496 C10.0249199,6.83185496 10.9299298,2.47141841 6.33371624,0.511162812 C6.33371624,0.511162812 12.971054,1.14193813 13.5561835,6.81640006 L16.0318418,6.77219188 L11.6624199,11.5434411 Z" id="路径" fill="#EFEFEF"></path>
                        <path d="M10.3776915,11.0552774 L6.19911956,6.32140744 L8.74019163,6.34369125 C8.74019163,6.34369125 9.64520145,1.9832547 5.04898792,0.022999101 C5.04898792,0.022999101 11.6863257,0.653774417 12.2714552,6.32823635 L14.7471135,6.28402817 L10.3776915,11.0552774 Z" id="路径" fill="#FFE403"></path>
                        <path d="M6.48835185,19.2495826 L2.30977986,14.5157127 L4.85085194,14.5379965 C4.85085194,14.5379965 5.75586176,10.17756 1.15964823,8.21730438 C1.15964823,8.21730438 7.79698599,8.8480797 8.38211546,14.5225416 L10.8577738,14.4783334 L6.48835185,19.2495826 Z" id="路径" fill="#EFEFEF" transform="translate(6.008711, 13.733444) scale(-1, -1) translate(-6.008711, -13.733444) "></path>
                        <path d="M5.36422529,19.2495826 L1.18565331,14.5157127 L3.72672538,14.5379965 C3.72672538,14.5379965 4.63173521,10.17756 0.0355216803,8.21730438 C0.0355216803,8.21730438 6.67285944,8.8480797 7.25798891,14.5225416 L9.73364724,14.4783334 L5.36422529,19.2495826 Z" id="路径" fill="#FFE403" transform="translate(4.884584, 13.733444) scale(-1, -1) translate(-4.884584, -13.733444) "></path>
                    </g>
                </g>
            </g>
        </g>
    </g>
</svg>