<?xml version="1.0" encoding="UTF-8"?>
<svg width="33px" height="33px" viewBox="0 0 33 33" version="1.1" xmlns="http://www.w3.org/2000/svg" xmlns:xlink="http://www.w3.org/1999/xlink">
    <title>icon-issuance</title>
    <g id="页面-1" stroke="none" stroke-width="1" fill="none" fill-rule="evenodd">
        <g id="001首页" transform="translate(-763.000000, -511.000000)">
            <g id="编组-9" transform="translate(96.000000, 392.000000)">
                <g id="编组-7" transform="translate(622.000000, 3.000000)">
                    <g id="icon-issuance" transform="translate(45.250000, 116.500000)">
                        <rect id="矩形" stroke="#979797" fill="#D8D8D8" opacity="0" x="0.5" y="0.5" width="31" height="31"></rect>
                        <g id="质押" transform="translate(10.095453, 1.749135)">
                            <path d="M1.03266,6.52677477 C0.877652533,7.13285151 0.795242746,7.76798819 0.795242746,8.42237272 C0.795242746,12.6347386 4.21003999,16.0495358 8.42240587,16.0495358 C9.98983756,16.0495358 11.4468377,15.5767222 12.658563,14.7659382 M15.8315705,10.240337 C15.9740327,9.65773171 16.049569,9.04887344 16.049569,8.42237272 C16.049569,4.21000684 12.6347717,0.795209596 8.42240587,0.795209596 C6.85086096,0.795209596 5.39032794,1.27050798 4.17671442,2.08519714" id="形状" stroke="#4E3603" stroke-width="0.8" stroke-linecap="round"></path>
                            <circle id="椭圆形" stroke="#4E3603" stroke-width="0.8" stroke-linecap="round" cx="2.89728945" cy="2.93157033" r="1.40680373"></circle>
                            <circle id="椭圆形" stroke="#4E3603" stroke-width="0.8" stroke-linecap="round" cx="13.873852" cy="13.8823111" r="1.40680373"></circle>
                            <path d="M12.9187345,9.42685601 C12.9187345,7.49842268 11.3552893,5.93497755 9.42685601,5.93497755 C7.49842268,5.93497755 5.93497755,7.49842268 5.93497755,9.42685601 C5.93497755,11.3552893 7.49842268,12.9187345 9.42685601,12.9187345 C11.3544993,12.9161011 12.9161011,11.3544993 12.9187345,9.42685601 Z" id="形状" fill="#EFEFEF" fill-rule="nonzero"></path>
                            <path d="M12.926856,8.42685601 C12.926856,5.94167502 10.912037,3.92685601 8.42685601,3.92685601 C5.94167502,3.92685601 3.92685601,5.94167502 3.92685601,8.42685601 C3.92685601,10.912037 5.94167502,12.926856 8.42685601,12.926856 C10.9110189,12.9234623 12.9234623,10.9110189 12.926856,8.42685601 Z" id="形状" fill="#FFE403" fill-rule="nonzero"></path>
                            <path d="M8.42685601,6.75596847 L8.42685594,6.75596847 C9.34966086,6.75596847 10.0977435,7.50404944 10.0977435,8.42685601 C10.0977435,9.34966093 9.34966251,10.0977436 8.42685594,10.0977436 L8.42685587,10.0977436 C7.50405094,10.0977436 6.75596832,9.34966258 6.75596832,8.42685601 C6.75596832,7.50405109 7.5040493,6.75596847 8.42685587,6.75596847 L8.42685601,6.75596847 Z" id="路径" stroke="#FFFFFF" stroke-width="0.5"></path>
                        </g>
                        <path d="M6.02694484,17.6858368 C8.73928463,17.7868621 11.3861776,18.6334961 13.9676239,20.2257386 C22.0464172,20.2257386 22.6024679,23.3245266 22.7626025,23.9857806 C22.8693589,24.4266166 22.8693589,24.7841341 22.7626025,25.0583331 C17.7798659,25.0583331 14.7102352,25.0583331 13.5537105,25.0583331 C12.3971859,25.0583331 11.5095143,24.809867 10.890696,24.3129349" id="路径-10" stroke="#4E3603" stroke-width="0.8" stroke-linecap="round"></path>
                        <path d="M6.02694484,26.5294405 C10.0695247,28.3809576 12.8784735,29.3949259 14.453791,29.5713455 C16.8167674,29.8359748 19.421658,29.7675171 23.3695664,28.2492349 C25.3156695,27.5008048 27.4944092,26.67881 29.9057856,25.7832507 C30.8865465,25.418943 31.3863427,24.3285779 31.0220909,23.3477962 C30.7519645,22.6204559 30.065622,22.131363 29.2899471,22.1134572 C28.2711188,22.0899384 25.9153143,22.0899384 21.7884312,22.1134572" id="路径-11" stroke="#4E3603" stroke-width="0.8" stroke-linecap="round"></path>
                        <rect id="矩形" stroke="#4E3603" stroke-width="0.8" stroke-linecap="round" x="1.00808307" y="15.002807" width="5.01886177" height="14.150744" rx="1"></rect>
                        <path d="M4.40975941,16.7805472 L3.62526851,16.7805472 C3.07298376,16.7805472 2.62526851,17.2282625 2.62526851,17.7805472 L2.62526851,18.5911264 L2.62526851,18.5911264" id="路径" stroke="#4E3603" stroke-width="0.8" stroke-linecap="round"></path>
                        <line x1="2.62526851" y1="20.9270944" x2="2.62526851" y2="25.3758107" id="路径" stroke="#4E3603" stroke-width="0.8" stroke-linecap="round"></line>
                    </g>
                </g>
            </g>
        </g>
    </g>
</svg>