<?xml version="1.0" encoding="UTF-8"?>
<svg width="24px" height="24px" viewBox="0 0 24 24" version="1.1" xmlns="http://www.w3.org/2000/svg" xmlns:xlink="http://www.w3.org/1999/xlink">
    <title>icon_to</title>
    <g id="页面-1" stroke="none" stroke-width="1" fill="none" fill-rule="evenodd">
        <g id="001首页" transform="translate(-963.000000, -700.000000)">
            <g id="编组-24" transform="translate(732.000000, 594.000000)">
                <g id="编组-4" transform="translate(104.000000, 79.000000)">
                    <g id="编组-12" transform="translate(0.000000, 27.000000)">
                        <g id="icon_to" transform="translate(127.000000, 0.000000)">
                            <circle id="椭圆形" stroke="#EFEFEF" fill="#FAFAFA" cx="12" cy="12" r="11.5"></circle>
                            <g id="箭头" transform="translate(12.000000, 12.000000) rotate(-270.000000) translate(-12.000000, -12.000000) translate(6.500000, 5.500000)" fill="#333333" fill-rule="nonzero">
                                <path d="M10.6460608,4.85716558 L6.18286618,0.393970909 C5.83429285,0.0453975758 5.26924352,0.0453975758 4.92067018,0.393970909 L0.457475515,4.85716558 C0.108902182,5.20573891 0.108902182,5.77078824 0.457475515,6.11936158 C0.806048848,6.46793491 1.37109818,6.46793491 1.71967152,6.11936158 L4.65914485,3.17988824 L4.65914485,11.7367309 C4.65914485,12.2299162 5.05860885,12.6293802 5.55179418,12.6293802 C6.04497952,12.6293802 6.44444352,12.2299162 6.44444352,11.7367309 L6.44444352,3.17988824 L9.38391685,6.11936158 C9.55797818,6.29344024 9.78650085,6.38090424 10.0150235,6.38090424 C10.2435462,6.38090424 10.4720515,6.29387358 10.6461302,6.11936158 C10.9947035,5.77078824 10.9947035,5.20573891 10.6461302,4.85716558 L10.6460608,4.85716558 Z" id="路径"></path>
                            </g>
                        </g>
                    </g>
                </g>
            </g>
        </g>
    </g>
</svg>