<?xml version="1.0" encoding="UTF-8"?>
<svg width="33px" height="32px" viewBox="0 0 33 32" version="1.1" xmlns="http://www.w3.org/2000/svg" xmlns:xlink="http://www.w3.org/1999/xlink">
    <title>icon_holders</title>
    <g id="页面-1" stroke="none" stroke-width="1" fill="none" fill-rule="evenodd">
        <g id="001首页" transform="translate(-1074.000000, -422.000000)">
            <g id="编组-9" transform="translate(96.000000, 392.000000)">
                <g id="编组-7" transform="translate(933.000000, 3.000000)">
                    <g id="icon_holders" transform="translate(45.750000, 27.000000)">
                        <rect id="矩形" stroke="#979797" fill="#D8D8D8" opacity="0" x="0.5" y="0.5" width="31" height="31"></rect>
                        <g id="编组-19" transform="translate(2.987292, 1.569788)">
                            <path d="M12.7478748,2.52796656 C6.84724574,3.2833312 2.28676183,8.32419271 2.28676183,14.4302123 C2.28676183,21.0576293 7.65934483,26.4302123 14.2867618,26.4302123 C20.9141788,26.4302123 26.2867618,21.0576293 26.2867618,14.4302123 C26.2867618,12.1747457 25.6645083,10.0646142 24.582308,8.26212438" id="路径" stroke="#4E3603" stroke-width="0.8" stroke-linecap="round"></path>
                            <path d="M14.5,0 C13.7651872,0 13.0431406,0.0546589459 12.3377043,0.160132835 M8.76584859,1.17795125 C7.17459447,1.86378359 5.73064299,2.82637215 4.49462439,4.00508669 M2.18262965,6.8456212 C0.799180261,9.06714816 0,11.6902448 0,14.5" id="形状" stroke="#4E3603" stroke-width="0.8" stroke-linecap="round"></path>
                            <path d="M8.62626508,27.7610115 C10.4217903,28.5574878 12.409218,29 14.5,29" id="路径" stroke="#FFE403" stroke-linecap="round"></path>
                            <path d="M17.5128895,28.6865619 C18.4184767,28.4951863 19.292884,28.2192922 20.1274708,27.8675202" id="路径" stroke="#FFE403" stroke-linecap="round"></path>
                            <path d="M22.871719,26.3405472 C24.0702277,25.4916127 25.1342093,24.4652853 26.0254153,23.2998135" id="路径" stroke="#FFE403" stroke-linecap="round"></path>
                            <path d="M14.5,3.64141051 C18.4087912,3.64141051 21.8962944,5.44515893 24.1755592,8.26570536 L14.5,16.0746635 Z" id="形状结合" fill="#CACACA" fill-rule="nonzero" opacity="0.441509428"></path>
                            <path d="M14.2867618,1.99695937 C18.195553,1.99695937 21.6830562,3.80070778 23.962321,6.62125422 L14.2867618,14.4302123 Z" id="形状结合" fill="#FFE403"></path>
                        </g>
                        <path d="M15.9994916,9.78337353 C13.1031054,10.3734946 10.9236686,12.9351381 10.9236686,16.0058162 C10.9236686,19.5130373 13.7668331,22.3562018 17.2740542,22.3562018 C20.7812753,22.3562018 23.6244398,19.5130373 23.6244398,16.0058162 C23.6244398,15.0994605 23.4345625,14.237453 23.0924163,13.4574021 C23.006848,13.2623169 22.9435025,13.1776997 22.8394747,12.993455" id="路径" stroke="#4E3603" stroke-width="0.8" stroke-linecap="round"></path>
                        <line x1="13.6734543" y1="21.3137827" x2="10.6056862" y2="25.9466209" id="路径-13" stroke="#4E3603" stroke-width="0.8" stroke-linecap="round"></line>
                        <circle id="椭圆形" stroke="#FFE403" fill="#FFE403" cx="17.2740542" cy="16" r="1.27405419"></circle>
                    </g>
                </g>
            </g>
        </g>
    </g>
</svg>