<?xml version="1.0" encoding="UTF-8"?>
<svg width="44px" height="44px" viewBox="0 0 44 44" version="1.1" xmlns="http://www.w3.org/2000/svg" xmlns:xlink="http://www.w3.org/1999/xlink">
    <title>icon_key</title>
    <defs>
        <circle id="path-1" cx="12" cy="12" r="12"></circle>
        <filter x="-66.7%" y="-58.3%" width="233.3%" height="233.3%" filterUnits="objectBoundingBox" id="filter-2">
            <feOffset dx="0" dy="2" in="SourceAlpha" result="shadowOffsetOuter1"></feOffset>
            <feGaussianBlur stdDeviation="5" in="shadowOffsetOuter1" result="shadowBlurOuter1"></feGaussianBlur>
            <feComposite in="shadowBlurOuter1" in2="SourceAlpha" operator="out" result="shadowBlurOuter1"></feComposite>
            <feColorMatrix values="0 0 0 0 0   0 0 0 0 0   0 0 0 0 0  0 0 0 0.0445070067 0" type="matrix" in="shadowBlurOuter1"></feColorMatrix>
        </filter>
    </defs>
    <g id="页面-1" stroke="none" stroke-width="1" fill="none" fill-rule="evenodd">
        <g id="003-02地址易详情" transform="translate(-300.000000, -160.000000)">
            <g id="编组-3" transform="translate(96.000000, 136.000000)">
                <g id="icon_key" transform="translate(214.000000, 32.000000)">
                    <g id="椭圆形">
                        <use fill="black" fill-opacity="1" filter="url(#filter-2)" xlink:href="#path-1"></use>
                        <circle stroke-opacity="0.486623484" stroke="#69A8ED" stroke-width="1" stroke-linejoin="square" fill="#111519" fill-rule="evenodd" cx="12" cy="12" r="11.5"></circle>
                    </g>
                    <path d="M12.6335035,13.052843 L12.6335037,13.0528421 C12.2252069,15.425085 9.97114474,17.0171664 7.59890187,16.6088662 C5.51267337,16.2497935 3.98611739,14.4435817 3.97973319,12.3266668 L3.97973319,12.3266719 C3.9775368,9.92035584 5.92645388,7.96786735 8.33276999,7.96566998 C10.4618879,7.96372681 12.2805853,9.500821 12.6335037,11.6004967 L19.2292964,11.6004967 L19.2292964,11.6004967 C19.6303479,11.6004967 19.9554665,11.9256136 19.9554665,12.3266668 C19.9554665,12.7277184 19.6303496,13.052837 19.2292964,13.052837 L18.5031262,13.052837 L18.5031262,15.2313458 L18.5031262,15.2312346 C18.5031262,15.6322861 18.1780093,15.9574047 17.7769561,15.9574047 C17.3759913,15.9574047 17.0509085,15.6324223 17.0507859,15.2314575 L17.0507859,13.0529488 L15.5984473,13.0529488 L15.5984473,15.2314575 L15.5984473,15.2313464 C15.5984473,15.6323979 15.2733304,15.9575165 14.8722772,15.9575165 C14.4713124,15.9575165 14.1462295,15.6325341 14.146107,15.2315693 L14.146107,13.0530606 L12.6334952,13.0530606 L12.6335035,13.052843 Z M8.33675242,15.2313518 L8.33675229,15.2313518 C9.9409619,15.2313518 11.2414363,13.9308824 11.2414363,12.3266677 C11.2414363,10.7224581 9.940967,9.42198371 8.33675229,9.42198371 L8.33675217,9.42198371 C6.73254256,9.42198371 5.43206814,10.722453 5.43206814,12.3266677 C5.43206814,13.9308773 6.73253746,15.2313518 8.33675217,15.2313518 L8.33675242,15.2313518 Z M12.6335035,13.052843 L12.6335037,13.0528421 C12.2252069,15.425085 9.97114474,17.0171664 7.59890187,16.6088662 C5.51267337,16.2497935 3.98611739,14.4435817 3.97973319,12.3266668 L3.97973319,12.3266719 C3.9775368,9.92035584 5.92645388,7.96786735 8.33276999,7.96566998 C10.4618879,7.96372681 12.2805853,9.500821 12.6335037,11.6004967 L19.2292964,11.6004967 L19.2292964,11.6004967 C19.6303479,11.6004967 19.9554665,11.9256136 19.9554665,12.3266668 C19.9554665,12.7277184 19.6303496,13.052837 19.2292964,13.052837 L18.5031262,13.052837 L18.5031262,15.2313458 L18.5031262,15.2312346 C18.5031262,15.6322861 18.1780093,15.9574047 17.7769561,15.9574047 C17.3759913,15.9574047 17.0509085,15.6324223 17.0507859,15.2314575 L17.0507859,13.0529488 L15.5984473,13.0529488 L15.5984473,15.2314575 L15.5984473,15.2313464 C15.5984473,15.6323979 15.2733304,15.9575165 14.8722772,15.9575165 C14.4713124,15.9575165 14.1462295,15.6325341 14.146107,15.2315693 L14.146107,13.0530606 L12.6334952,13.0530606 L12.6335035,13.052843 Z M8.33675242,15.2313518 L8.33675229,15.2313518 C9.9409619,15.2313518 11.2414363,13.9308824 11.2414363,12.3266677 C11.2414363,10.7224581 9.940967,9.42198371 8.33675229,9.42198371 L8.33675217,9.42198371 C6.73254256,9.42198371 5.43206814,10.722453 5.43206814,12.3266677 C5.43206814,13.9308773 6.73253746,15.2313518 8.33675217,15.2313518 L8.33675242,15.2313518 Z" id="形状" fill="#9CB7CD" fill-rule="nonzero" transform="translate(11.967599, 12.319200) rotate(-225.000000) translate(-11.967599, -12.319200) "></path>
                </g>
            </g>
        </g>
    </g>
</svg>