<?xml version="1.0" encoding="UTF-8"?>
<svg width="32px" height="33px" viewBox="0 0 32 33" version="1.1" xmlns="http://www.w3.org/2000/svg" xmlns:xlink="http://www.w3.org/1999/xlink">
    <title>icon_high sure</title>
    <g id="页面-1" stroke="none" stroke-width="1" fill="none" fill-rule="evenodd">
        <g id="001首页" transform="translate(-132.000000, -425.000000)">
            <g id="编组-9" transform="translate(96.000000, 392.000000)">
                <g id="icon_high-sure" transform="translate(36.000000, 33.500000)">
                    <rect id="矩形" stroke="#979797" fill="#D8D8D8" opacity="0" x="0.5" y="0.5" width="31" height="31"></rect>
                    <path d="M26.0561447,9.2829911 L26.7111981,9.66118635 C27.3300003,10.0184519 27.7111981,10.678706 27.7111981,11.3932372 L27.7111981,22.6067628 C27.7111981,23.321294 27.3300003,23.9815481 26.7111981,24.3388137 L17,29.9455765 C16.3811978,30.3028421 15.6188022,30.3028421 15,29.9455765 L5.28880189,24.3388137 C4.66999973,23.9815481 4.28880189,23.321294 4.28880189,22.6067628 L4.28880189,11.3932372 C4.28880189,10.678706 4.66999973,10.0184519 5.28880189,9.66118635 L15,4.0544235 C15.6188022,3.69715791 16.3811978,3.69715791 17,4.0544235 L17.0722801,4.09615441 L17.0722801,4.09615441" id="路径" stroke="#4E3603" stroke-width="0.8" stroke-linecap="round"></path>
                    <g id="编组-18" transform="translate(12.522927, 1.000000)">
                        <circle id="椭圆形" fill="#FFE403" cx="1.5" cy="10.8565056" r="1.5"></circle>
                        <circle id="椭圆形" fill="#FFE403" cx="6.86590208" cy="3.98553906" r="1.5"></circle>
                        <circle id="椭圆形" fill="#FFE403" cx="10.765709" cy="8.44109758" r="1.5"></circle>
                        <circle id="椭圆形" fill="#FFE403" cx="15.4330367" cy="1.5" r="1.5"></circle>
                        <polyline id="路径-21" stroke="#FFE403" points="1.29876743 10.9082503 6.88798995 3.98553906 10.765709 8.44109758 15.4330367 1.5"></polyline>
                    </g>
                    <polyline id="路径-18" stroke="#4E3603" stroke-width="0.8" stroke-linecap="round" points="16 27.0088309 16 16.6567627 25.4805908 11.4286642"></polyline>
                    <line x1="16" y1="16.6567627" x2="6.45449511" y2="11.4286642" id="路径-19" stroke="#4E3603" stroke-width="0.8" stroke-linecap="round"></line>
                    <path d="M14.1632497,19.1110527 L9.96925391,16.81399 M7.88394471,15.6718606 L6.45449511,14.8889473" id="形状" stroke="#4E3603" stroke-width="0.8" stroke-linecap="round"></path>
                    <path d="M14.08989,22.6961404 L12.3942862,21.7674537 M10.4126127,20.6820858 L6.45449511,18.5142142" id="形状" stroke="#4E3603" stroke-width="0.8" stroke-linecap="round"></path>
                    <line x1="9.79721396" y1="23.6115484" x2="6.45449511" y2="21.7807324" id="路径" stroke="#4E3603" stroke-width="0.8" stroke-linecap="round"></line>
                    <path d="M18.6051857,24.2785619 L18.6051857,19.3380603 C18.6051857,18.616828 18.9935051,17.9514596 19.621463,17.5967133 L23.614151,15.3411618 C24.0950107,15.0695142 24.7050384,15.2391142 24.9766859,15.7199739 C25.0614628,15.8700426 25.1060124,16.039476 25.1060124,16.2118353 L25.1060124,21.1026582 C25.1060124,21.8171894 24.7248146,22.4774434 24.1060124,22.834709 L20.1051857,25.1445873 C19.6268931,25.4207297 19.0153027,25.2568546 18.7391603,24.7785619 C18.651392,24.6265427 18.6051857,24.4540986 18.6051857,24.2785619 Z" id="路径-20" fill="#FFE403"></path>
                </g>
            </g>
        </g>
    </g>
</svg>