<?xml version="1.0" encoding="UTF-8"?>
<svg width="24px" height="25px" viewBox="0 0 24 25" version="1.1" xmlns="http://www.w3.org/2000/svg" xmlns:xlink="http://www.w3.org/1999/xlink">
    <title>icon_PCX_list</title>
    <defs>
        <polygon id="path-1" points="0 0.0709129932 8.68121116 0.0709129932 8.68121116 8.75212415 0 8.75212415"></polygon>
        <path d="M1.40744263,1.60566617 C1.29326069,1.66548456 1.18564306,1.74314677 1.08921248,1.83846789 L0.0700808981,0.81942876 C0.856318309,0.0370744593 1.99351494,-0.176496615 2.97215123,0.178438171 C3.05138517,0.207284134 3.13015684,0.239366023 3.20726432,0.276070662 C3.46280997,0.396262176 3.70347036,0.558428265 3.91944527,0.761367013 L2.89901932,1.78179297" id="path-3"></path>
    </defs>
    <g id="页面-1" stroke="none" stroke-width="1" fill="none" fill-rule="evenodd">
        <g id="003-02地址易详情" transform="translate(-144.000000, -560.000000)">
            <g id="编组-7" transform="translate(128.000000, 492.000000)">
                <g id="icon_PCX_list" transform="translate(16.000000, 68.500000)">
                    <circle id="Oval-2" stroke="#EFEFEF" fill="#FAFAFA" cx="12" cy="12" r="11.5"></circle>
                    <g id="Group-6" transform="translate(5.000000, 5.000000)">
                        <g id="Group-3" transform="translate(0.000000, 0.017663)">
                            <mask id="mask-2" fill="white">
                                <use xlink:href="#path-1"></use>
                            </mask>
                            <g id="Clip-2"></g>
                            <path d="M7.86922503,4.01939838 L5.69459072,1.84476407 C5.65122932,1.80149513 5.58105597,1.80149513 5.53778702,1.84476407 L4.67518177,2.70736932 C4.63191283,2.75063827 4.63191283,2.82081162 4.67518177,2.86417302 L6.82845897,5.01745022 C7.3548978,5.5437966 7.36876606,6.4192531 6.833544,6.93672379 C6.31348456,7.43949414 5.48138947,7.4342242 4.96798679,6.92072907 L1.8313581,3.78419283 C1.31795542,3.27069771 1.31259303,2.43860261 1.81536338,1.91854317 C2.33283408,1.38332112 3.20829057,1.39728182 3.7347294,1.9236282 L4.04787453,2.23686578 C4.09123593,2.28013472 4.16140928,2.28013472 4.20467822,2.23686578 L5.06728347,1.37435298 C5.11055242,1.33099158 5.11055242,1.26081823 5.06728347,1.21745683 L4.73268879,0.882862143 C3.65004061,-0.199786033 1.89468978,-0.199786033 0.81194915,0.882862143 C-0.270699026,1.96551032 -0.270699026,3.72086115 0.81194915,4.80350933 L3.94857784,7.94013802 C5.03122602,9.0227862 6.78657685,9.0227862 7.86922503,7.94013802 L7.86922503,7.94004557 C8.9518732,6.85739739 8.9518732,5.10213901 7.86922503,4.01939838" id="Fill-1" fill="#EA754B" mask="url(#mask-2)"></path>
                        </g>
                        <path d="M12.8848077,0.829787776 C11.8018821,-0.253045309 10.0464388,-0.253045309 8.96416048,0.829787776 L6.84167079,2.95227746 L7.85571735,3.96641647 C7.857474,3.96808066 7.85913819,3.96974485 7.86070992,3.97140904 L9.98329206,1.84891936 C10.502242,1.33052411 11.3467261,1.33052411 11.8651213,1.84891936 C12.3840713,2.36796179 12.3840713,3.21244586 11.8651213,3.73139583 L11.5310814,4.06534333 C11.4878124,4.10861228 11.4878124,4.17887809 11.5310814,4.22214703 L12.3936866,5.08465983 C12.4369556,5.12802123 12.5072214,5.12802123 12.5504903,5.08465983 L12.8848077,4.75043496 C13.967086,3.66750942 13.967086,1.91271332 12.8848077,0.829787776" id="Fill-4" fill="#34C69A"></path>
                        <path d="M11.037589,4.71437751 C10.9942276,4.67101611 10.9240543,4.67101611 10.8807853,4.71437751 L8.7055963,6.88919672 C8.6079638,6.98673676 8.49877444,7.06615562 8.38228112,7.12708347 C7.88052778,7.38984061 7.24508449,7.31060666 6.82367455,6.88919672 C6.82201036,6.88753253 6.81979144,6.88531361 6.81868198,6.88364942 C6.3069435,6.36636364 6.3069435,5.52964579 6.81868198,5.01236001 L5.7995504,3.99322842 C4.95460406,4.8415956 4.77329978,6.10129512 5.25508284,7.12708347 C5.38766333,7.40981089 5.57118652,7.67543414 5.80454297,7.90888304 C6.1012311,8.20557117 6.44886194,8.42062152 6.81868198,8.55477374 C7.12369106,8.66507257 7.44414013,8.72063803 7.7645892,8.72063803 C8.47427386,8.72063803 9.18349625,8.45002222 9.72519015,7.90888304 L11.9002867,5.73378646 C11.9435557,5.69060997 11.9435557,5.62034416 11.9002867,5.57698276 L11.037589,4.71437751 Z" id="Fill-6" fill="#34C69A"></path>
                        <path d="M12.8860096,9.07409354 L10.7637048,6.95178877 L9.74438831,7.97110526 L11.8666931,10.09341 C12.3804656,10.607275 12.3852732,11.439555 11.882318,11.959522 C11.3648473,12.4942818 10.4895757,12.4801361 9.96341423,11.9539747 L9.6500842,11.6408295 C9.60681526,11.5974681 9.5366419,11.5974681 9.49337296,11.6408295 L8.63076771,12.5033423 C8.58749876,12.5467037 8.58749876,12.6167846 8.63076771,12.660146 L8.93069176,12.9600701 C10.0167608,14.0460467 11.8220373,14.074153 12.9003401,12.9803177 C13.4322338,12.4407503 13.6980419,11.737445 13.6980419,11.034787 C13.6980419,10.3251023 13.4274261,9.61541763 12.8860096,9.07409354" id="Fill-8" fill="#F6C94A"></path>
                        <path d="M8.99855374,11.1472756 C9.04191514,11.1039142 9.04191514,11.0337408 8.99855374,10.9904719 L6.82391943,8.81574511 C6.72628694,8.71820507 6.64668318,8.60873834 6.58594023,8.49233748 C6.32364537,7.9908615 6.40241704,7.35532576 6.82391943,6.93391582 L6.82900446,6.92873834 C7.34647515,6.41672249 8.183193,6.41672249 8.70066369,6.92873834 L9.72007264,5.90942185 C8.87087337,5.06484532 7.61117385,4.88335614 6.58594023,5.36523165 C6.30284299,5.49771968 6.0381443,5.68078061 5.80451048,5.91441442 C5.5077299,6.21128746 5.29249463,6.55827111 5.15880469,6.92873834 C5.04785868,7.2333776 4.99257058,7.55456631 4.99257058,7.87520029 C4.99257058,8.58479249 5.26346376,9.29410734 5.80451048,9.83515406 L7.97923725,12.0097884 C8.02250619,12.0531498 8.09267954,12.0531498 8.13604094,12.0097884 L8.99855374,11.1472756 Z" id="Fill-10" fill="#F6C94A"></path>
                        <path d="M8.44742942,6.93942725 C8.41858346,6.8573272 8.38539211,6.77642906 8.34767046,6.69654793 C8.21564471,6.41326578 8.03212151,6.14819726 7.79821034,5.91474836 C7.56587089,5.68185419 7.30191184,5.49888572 7.02020142,5.36639769 C6.9431864,5.32978551 6.86441473,5.29761117 6.78518078,5.26885766 C5.80654449,4.91401533 4.66934786,5.12740149 3.88311045,5.90975579 L4.90214958,6.92888737 C4.99867261,6.8334738 5.10619779,6.75590405 5.22047218,6.6959932 C5.72278025,6.43369834 6.35822354,6.51311719 6.77907875,6.93387995 L6.78407132,6.93887252 C7.20372462,7.3630561 7.27972263,8.00173532 7.01086346,8.50302639 C6.95206208,8.61387995 6.87661879,8.71752201 6.78407132,8.81071666 L7.80375764,9.83049543 C8.58222883,9.04749395 8.79737164,7.91528988 8.44742942,6.93942725" id="Fill-12" fill="#46AEE2"></path>
                        <path d="M2.71593528,9.04182674 L3.87938914,7.87846534 L2.86025755,6.85933376 L1.69671124,8.0226027 C1.65334984,8.06587165 1.65334984,8.13613745 1.69671124,8.1794064 L2.55913158,9.04182674 C2.60240053,9.08518814 2.67266634,9.08518814 2.71593528,9.04182674" id="Fill-14" fill="#46AEE2"></path>
                        <path d="M3.71370976,11.8814899 C3.19466733,12.4004399 2.35018326,12.4004399 1.83178801,11.8814899 C1.31283804,11.36254 1.31283804,10.5186106 1.83178801,9.99966065 L2.16351659,9.66783962 C2.20687799,9.62457067 2.20687799,9.55430486 2.16351659,9.51094346 L1.3010038,8.64843067 C1.25773485,8.60516172 1.1875615,8.60516172 1.1442001,8.64843067 L0.812194156,8.98043661 C-0.270731385,10.0633622 -0.270731385,11.8181583 0.812194156,12.9010838 C1.35388806,13.4423154 2.063018,13.7133935 2.77214793,13.7129318 C3.48192505,13.7129318 4.19160971,13.4423154 4.73330362,12.9010838 L6.85523857,10.7785941 L5.83619944,9.75955499 L3.71370976,11.8814899 Z" id="Fill-16" fill="#46AEE2"></path>
                        <g id="Group-29" transform="translate(3.883110, 5.102689)">
                            <mask id="mask-4" fill="white">
                                <use xlink:href="#path-3"></use>
                            </mask>
                            <g id="Clip-28"></g>
                            <path d="M1.40744263,1.60566617 C1.8838633,1.35686974 2.47973584,1.41594849 2.89901932,1.78179297 L3.91944527,0.761367013 C3.70347036,0.558428265 3.46280997,0.396262176 3.20726432,0.276070662 C3.13015684,0.239366023 3.05138517,0.207284134 2.97215123,0.178438171 C1.99351494,-0.176496615 0.856318309,0.0370744593 0.0700808981,0.81942876 L1.08921248,1.83846789 C1.18564306,1.74314677 1.29326069,1.66548456 1.40744263,1.60566617" id="Fill-27" mask="url(#mask-4)"></path>
                        </g>
                    </g>
                </g>
            </g>
        </g>
    </g>
</svg>