<?xml version="1.0" encoding="UTF-8"?>
<svg width="33px" height="33px" viewBox="0 0 33 33" version="1.1" xmlns="http://www.w3.org/2000/svg" xmlns:xlink="http://www.w3.org/1999/xlink">
    <title>icon_zhiya</title>
    <g id="页面-1" stroke="none" stroke-width="1" fill="none" fill-rule="evenodd">
        <g id="001首页" transform="translate(-1074.000000, -511.000000)">
            <g id="编组-9" transform="translate(96.000000, 392.000000)">
                <g id="编组-7" transform="translate(933.000000, 3.000000)">
                    <g id="icon_zhiya" transform="translate(45.750000, 116.500000)">
                        <rect id="矩形" fill="#D8D8D8" opacity="0" x="0" y="0" width="32" height="32"></rect>
                        <g id="编组-27" transform="translate(2.500000, 1.500000)">
                            <path d="M0,16.4305186 L26.4301975,16.4305186 L26.4301975,25.3026462 C26.4301975,26.9595004 25.0870518,28.3026462 23.4301975,28.3026462 L3,28.3026462 C1.34314575,28.3026462 6.46995335e-16,26.9595004 0,25.3026462 L0,16.4305186 L0,16.4305186 Z" id="矩形" stroke="#4E3603" stroke-width="0.8" stroke-linecap="round"></path>
                            <path d="M0,16.0641226 L3.54017679,10.3543461 C3.90489788,9.76610549 4.54783348,9.40825028 5.23996679,9.40825028 L21.1222236,9.40825028 C21.8032831,9.40825028 22.4375316,9.75482746 22.8053904,10.3279959 L26.4301975,15.975883 L26.4301975,15.975883" id="路径-14" stroke="#4E3603" stroke-width="0.8" stroke-linecap="round"></path>
                            <path d="M10.9904627,4.54747351e-13 L19.2272251,4.54747351e-13 C20.8840794,4.54442992e-13 22.2272251,1.34314575 22.2272251,3 L22.2272251,14.2367624 L22.2272251,14.2367624 L7.99046266,14.2367624 L7.99046266,3 C7.99046266,1.34314575 9.33360842,4.5505171e-13 10.9904627,4.54747351e-13 Z" id="矩形" fill="#CACACA" fill-rule="nonzero" opacity="0.441509428"></path>
                            <path d="M9.09671754,0 L17.33348,0 C18.9903342,-3.04359188e-16 20.33348,1.34314575 20.33348,3 L20.33348,14.2367624 L20.33348,14.2367624 L6.09671754,14.2367624 L6.09671754,3 C6.09671754,1.34314575 7.43986329,3.04359188e-16 9.09671754,0 Z" id="矩形" fill="#FFE403"></path>
                            <path d="M13.2150988,2.87956707 C10.9990735,2.87956707 9.20263003,4.67601051 9.20263003,6.8920358 C9.20263003,9.10806109 10.9990735,10.9045045 13.2150988,10.9045045 C15.1756197,10.9045045 16.8077353,9.49843398 17.1580335,7.63970491" id="路径" stroke="#4E3603" stroke-width="0.8" stroke-linecap="round"></path>
                            <line x1="4.7080387" y1="13.8996063" x2="21.5129154" y2="13.8996063" id="路径-15" stroke="#4E3603" stroke-width="0.8" stroke-linecap="round"></line>
                            <path d="M2.83933429,23.4546602 C8.53871078,23.4546602 11.388399,23.4546602 11.388399,23.4546602 M13.9861744,23.4546602 L16.3580106,23.4546602" id="形状" stroke="#4E3603" stroke-width="0.8" stroke-linecap="round"></path>
                            <rect id="矩形" fill="#FFE403" x="2.41654376" y="18.4235761" width="21.2932558" height="3.07196457" rx="1.53598229"></rect>
                            <line x1="2.83933429" y1="25.5839498" x2="6.78481348" y2="25.5839498" id="路径-16" stroke="#4E3603" stroke-width="0.8" stroke-linecap="round"></line>
                            <line x1="5.31317166" y1="19.9595583" x2="20.8131717" y2="19.9595583" id="路径-17" stroke="#FFFDFD" stroke-width="0.5" stroke-linecap="round"></line>
                            <polyline id="路径-3" stroke="#4E3603" stroke-width="0.8" stroke-linecap="round" stroke-linejoin="round" points="11.5902867 5.99238228 13.5 7.83854675 16.5638695 4.58938599"></polyline>
                        </g>
                    </g>
                </g>
            </g>
        </g>
    </g>
</svg>