<?xml version="1.0" encoding="UTF-8"?>
<svg width="33px" height="33px" viewBox="0 0 33 33" version="1.1" xmlns="http://www.w3.org/2000/svg" xmlns:xlink="http://www.w3.org/1999/xlink">
    <title>icon_sign</title>
    <g id="页面-1" stroke="none" stroke-width="1" fill="none" fill-rule="evenodd">
        <g id="001首页" transform="translate(-763.000000, -425.000000)">
            <g id="编组-9" transform="translate(96.000000, 392.000000)">
                <g id="编组-7" transform="translate(622.000000, 3.000000)">
                    <g id="icon_sign" transform="translate(45.250000, 30.500000)">
                        <rect id="矩形" fill="#D8D8D8" opacity="0" x="0" y="0" width="32" height="32"></rect>
                        <rect id="矩形" fill="#EFEFEF" x="8.23634143" y="9.62277412" width="14.5273171" height="4" rx="2"></rect>
                        <rect id="矩形" fill="#EFEFEF" x="8.23634143" y="18.5" width="14.5273171" height="4" rx="2"></rect>
                        <rect id="矩形" fill="#FFE403" x="7" y="7.9777317" width="15" height="4" rx="2"></rect>
                        <rect id="矩形" fill="#FFE403" x="7" y="17.0882397" width="15" height="4" rx="2"></rect>
                        <path d="M27,29.8722435 L7.12298193,29.8722435 M4,19.7939892 L4,3.30423583" id="形状" stroke="#4E3603" stroke-width="0.8" stroke-linecap="round"></path>
                        <path d="M7,3.7157101 C7,2.88728298 6.32842712,2.2157101 5.5,2.2157101 C4.67157288,2.2157101 4,2.88728298 4,3.7157101" id="路径" stroke="#4E3603" stroke-width="0.8" stroke-linecap="round"></path>
                        <path d="M10,3.7157101 C10,2.88728298 9.32842712,2.2157101 8.5,2.2157101 C7.67157288,2.2157101 7,2.88728298 7,3.7157101" id="路径" stroke="#4E3603" stroke-width="0.8" stroke-linecap="round"></path>
                        <path d="M13,3.7157101 C13,2.88728298 12.3284271,2.2157101 11.5,2.2157101 C10.6715729,2.2157101 10,2.88728298 10,3.7157101" id="路径" stroke="#4E3603" stroke-width="0.8" stroke-linecap="round"></path>
                        <path d="M16,3.7157101 C16,2.88728298 15.3284271,2.2157101 14.5,2.2157101 C13.6715729,2.2157101 13,2.88728298 13,3.7157101" id="路径" stroke="#4E3603" stroke-width="0.8" stroke-linecap="round"></path>
                        <path d="M19,3.7157101 C19,2.88728298 18.3284271,2.2157101 17.5,2.2157101 C16.6715729,2.2157101 16,2.88728298 16,3.7157101" id="路径" stroke="#4E3603" stroke-width="0.8" stroke-linecap="round"></path>
                        <path d="M22,3.7157101 C22,2.88728298 21.3284271,2.2157101 20.5,2.2157101 C19.6715729,2.2157101 19,2.88728298 19,3.7157101" id="路径" stroke="#4E3603" stroke-width="0.8" stroke-linecap="round"></path>
                        <path d="M25,3.7157101 C25,2.88728298 24.3284271,2.2157101 23.5,2.2157101 C22.6715729,2.2157101 22,2.88728298 22,3.7157101" id="路径" stroke="#4E3603" stroke-width="0.8" stroke-linecap="round"></path>
                        <path d="M28.9934579,3.30423583 L28.9934579,27.8787856 C28.9934579,28.979742 28.1009564,29.8722435 27,29.8722435 C25.8990436,29.8722435 25.0065421,28.979742 25.0065421,27.8787856 L25.0065421,5.21043968 L25.0065421,6.06624794" id="路径" stroke="#4E3603" stroke-width="0.8" stroke-linecap="round" transform="translate(27.000000, 16.588240) scale(-1, 1) translate(-27.000000, -16.588240) "></path>
                        <path d="M28.9934579,3.30423583 L28.9934579,26.3087372 C28.9934579,27.2485556 28.5472072,27.5250759 27.996729,27.5250759 C27.4462508,27.5250759 27,27.2485556 27,26.3087372 L27,4.84561004" id="路径" stroke="#4E3603" stroke-width="0.8" stroke-linecap="round" transform="translate(27.996729, 15.414656) scale(-1, -1) translate(-27.996729, -15.414656) "></path>
                        <line x1="0.74029541" y1="22.6642132" x2="4.92944727" y2="22.6642132" id="路径-8" stroke="#4E3603" stroke-width="0.8" stroke-linecap="round"></line>
                        <line x1="0.74029541" y1="24.6642132" x2="7.25970459" y2="24.6642132" id="路径-8" stroke="#4E3603" stroke-width="0.8" stroke-linecap="round"></line>
                        <path d="M0.74029541,26.6642132 L3.22864923,26.6642132 M5.47080231,26.6642132 L6.70133209,26.6642132" id="形状" stroke="#4E3603" stroke-width="0.8" stroke-linecap="round"></path>
                        <line x1="9.56636615" y1="9.9777317" x2="19.4336339" y2="9.9777317" id="路径-9" stroke="#FFFFFF" stroke-width="0.5" stroke-linecap="round"></line>
                        <line x1="9.56636615" y1="19.0882397" x2="19.4336339" y2="19.0882397" id="路径-9" stroke="#FFFFFF" stroke-width="0.5" stroke-linecap="round"></line>
                    </g>
                </g>
            </g>
        </g>
    </g>
</svg>