<?xml version="1.0" encoding="UTF-8"?>
<svg width="45px" height="44px" viewBox="0 0 45 44" version="1.1" xmlns="http://www.w3.org/2000/svg" xmlns:xlink="http://www.w3.org/1999/xlink">
    <title>icon_forward_hover</title>
    <defs>
        <circle id="path-1" cx="12" cy="12" r="12"></circle>
        <filter x="-66.7%" y="-58.3%" width="233.3%" height="233.3%" filterUnits="objectBoundingBox" id="filter-2">
            <feOffset dx="0" dy="2" in="SourceAlpha" result="shadowOffsetOuter1"></feOffset>
            <feGaussianBlur stdDeviation="5" in="shadowOffsetOuter1" result="shadowBlurOuter1"></feGaussianBlur>
            <feComposite in="shadowBlurOuter1" in2="SourceAlpha" operator="out" result="shadowBlurOuter1"></feComposite>
            <feColorMatrix values="0 0 0 0 0   0 0 0 0 0   0 0 0 0 0  0 0 0 0.0445070067 0" type="matrix" in="shadowBlurOuter1"></feColorMatrix>
        </filter>
    </defs>
    <g id="页面-1" stroke="none" stroke-width="1" fill="none" fill-rule="evenodd">
        <g id="003-03区块高度详情" transform="translate(-375.000000, -84.000000)">
            <g id="编组-4" transform="translate(96.000000, 72.000000)">
                <g id="icon_forward_hover" transform="translate(289.500000, 20.000000)">
                    <g id="椭圆形">
                        <use fill="black" fill-opacity="1" filter="url(#filter-2)" xlink:href="#path-1"></use>
                        <circle stroke-opacity="0.486623484" stroke="#FFFFFF" stroke-width="1" stroke-linejoin="square" fill="#111519" fill-rule="evenodd" cx="12" cy="12" r="11.5"></circle>
                    </g>
                    <g id="Group" transform="translate(12.000000, 12.000000) rotate(90.000000) translate(-12.000000, -12.000000) translate(6.000000, 6.000000)">
                        <rect id="Rectangle" x="0" y="0" width="12" height="12"></rect>
                        <path d="M1.61243091,4.73170732 L5.66791335,9.84320557 C5.75512846,9.94773571 5.86246853,10 5.98993677,10 C6.11740501,10 6.22474508,9.94773571 6.31196019,9.84320557 L10.3875691,4.73170732 C10.5083285,4.5923338 10.5318091,4.43554094 10.4580117,4.26132404 C10.3842143,4.08710714 10.2533936,4 10.0655457,4 L1.93445433,4 C1.7466064,4 1.61578569,4.08710714 1.54198829,4.26132404 C1.46819089,4.43554094 1.49167153,4.5923338 1.61243091,4.73170732 Z" id="-copy" fill="#FFFFFF"></path>
                    </g>
                </g>
            </g>
        </g>
    </g>
</svg>