<?xml version="1.0" encoding="UTF-8"?>
<svg width="26px" height="26px" viewBox="0 0 26 26" version="1.1" xmlns="http://www.w3.org/2000/svg" xmlns:xlink="http://www.w3.org/1999/xlink">
    <title>icon_failure</title>
    <g id="页面-1" stroke="none" stroke-width="1" fill="none" fill-rule="evenodd">
        <g id="002-02转账列表" transform="translate(-729.000000, -485.000000)" fill="#F3115B">
            <g id="编组-4" transform="translate(96.000000, 72.000000)">
                <g id="编组-10" transform="translate(634.000000, 92.000000)">
                    <g id="icon_failure" transform="translate(0.000000, 322.000000)">
                        <circle id="椭圆形" stroke="#F3115B" stroke-width="1.5" fill-opacity="0.1" fill-rule="nonzero" cx="12" cy="12" r="12"></circle>
                        <path d="M16.809375,16.8260734 C16.4789063,17.1541984 15.9445313,17.1541984 15.6164063,16.8237297 L12,13.1979484 L8.38359375,16.8237297 C8.05546875,17.1541984 7.52109375,17.1541984 7.190625,16.8260734 C6.86015625,16.4979484 6.86015625,15.9635734 7.18828125,15.6331047 L10.809375,12.0026359 L7.18828125,8.37216719 C6.86015625,8.04169844 6.86015625,7.50732344 7.190625,7.17919844 C7.3546875,7.01513594 7.5703125,6.93310469 7.7859375,6.93310469 C8.0015625,6.93310469 8.21953125,7.01513594 8.38359375,7.18154219 L12,10.8073234 L15.6164062,7.17919844 C15.7804687,7.01279219 15.9984375,6.93076094 16.2140625,6.93076094 C16.4296875,6.93076094 16.6453125,7.01279219 16.809375,7.17685469 C17.1398437,7.50497969 17.1398437,8.03935469 16.8117187,8.36982344 L13.190625,12.0026359 L16.809375,15.6331047 C17.1398437,15.9635734 17.1398437,16.4979484 16.809375,16.8260734 L16.809375,16.8260734 Z" id="Path"></path>
                    </g>
                </g>
            </g>
        </g>
    </g>
</svg>