<?xml version="1.0" encoding="UTF-8"?>
<svg width="30px" height="29px" viewBox="0 0 30 29" version="1.1" xmlns="http://www.w3.org/2000/svg" xmlns:xlink="http://www.w3.org/1999/xlink">
    <title>icon_close</title>
    <g id="2.0" stroke="none" stroke-width="1" fill="none" fill-rule="evenodd">
        <g id="菜单栏" transform="translate(-680.000000, -40.000000)" fill="#212121" fill-rule="nonzero">
            <g id="icon_close" transform="translate(680.000000, 40.000000)">
                <path d="M1.13444634,3.53131906 L25.627048,28.0239207 C26.4021826,28.7990553 27.6563981,28.7972797 28.4304385,28.0232392 C29.2041146,27.2495631 29.2066091,25.9953379 28.4311199,25.2198487 L3.93851831,0.727247093 C3.16480485,-0.0464663592 1.90916821,-0.0461119031 1.13512778,0.727928532 C0.361087343,1.50196897 0.360732887,2.75760561 1.13444634,3.53131906 L1.13444634,3.53131906 Z" id="路径"></path>
                <path d="M25.6266906,0.727604439 L1.13444634,25.2198487 C0.361090234,25.9932048 0.361087343,27.2491988 1.13512778,28.0232392 C1.90916821,28.7972797 3.16480485,28.7976341 3.93851831,28.0239207 L28.4311199,3.53131906 C29.2062545,2.75618447 29.2044789,1.50196897 28.4304385,0.727928532 C27.6564069,-0.0453922218 26.4021826,-0.0478874997 25.6266934,0.727601691 L25.6266906,0.727604439 Z" id="路径"></path>
            </g>
        </g>
    </g>
</svg>