<?xml version="1.0" encoding="UTF-8"?>
<svg width="33px" height="33px" viewBox="0 0 33 33" version="1.1" xmlns="http://www.w3.org/2000/svg" xmlns:xlink="http://www.w3.org/1999/xlink">
    <title>icon_node</title>
    <g id="页面-1" stroke="none" stroke-width="1" fill="none" fill-rule="evenodd">
        <g id="001首页" transform="translate(-445.000000, -511.000000)">
            <g id="编组-9" transform="translate(96.000000, 392.000000)">
                <g id="编组-7" transform="translate(311.250000, 0.000000)">
                    <g id="icon_node" transform="translate(38.250000, 119.500000)">
                        <rect id="矩形" stroke="#979797" fill="#D8D8D8" opacity="0" x="0.5" y="0.5" width="31" height="31"></rect>
                        <circle id="椭圆形" stroke="#4E3603" stroke-width="0.8" stroke-linecap="round" cx="16" cy="16" r="12"></circle>
                        <path d="M16,1.5 C15.2651872,1.5 14.5431406,1.55465895 13.8377043,1.66013284 M10.2658486,2.67795125 C8.67459447,3.36378359 7.23064299,4.32637215 5.99462439,5.50508669 M3.68262965,8.3456212 C2.29918026,10.5671482 1.5,13.1902448 1.5,16" id="形状" stroke="#4E3603" stroke-width="0.8" stroke-linecap="round"></path>
                        <ellipse id="椭圆形" stroke="#4E3603" stroke-width="0.8" stroke-linecap="round" cx="16" cy="16" rx="6" ry="12"></ellipse>
                        <path d="M5,12 L11.6287231,12 M15.0369263,12 L27.3316345,12" id="形状" stroke="#4E3603" stroke-width="0.8" stroke-linecap="round"></path>
                        <path d="M5,20 L18.7578735,20 M23.5608521,20 L27.3316345,20" id="形状" stroke="#4E3603" stroke-width="0.8" stroke-linecap="round"></path>
                        <g id="定位" transform="translate(18.000000, 1.500000)" fill-rule="nonzero">
                            <path d="M13.1676274,8.45264007 C13.1676274,5.21776788 10.8192694,2.8712191 7.58620646,2.8712191 C4.50873578,2.8712191 2.0047855,5.37516938 2.0047855,8.45264007 C2.0047855,10.7250111 5.09130225,14.5732064 6.75035023,16.6411364 L6.87337669,16.7931103 C7.0470611,17.0102158 7.30758772,17.1350515 7.58801568,17.1350515 C7.86663442,17.1350515 8.12716104,17.0102158 8.30265467,16.7931103 L8.42568113,16.6411364 C10.0811107,14.5732064 13.1676274,10.7250111 13.1676274,8.45264007 Z" id="形状" fill="#CACACA" opacity="0.441509428"></path>
                            <path d="M11.6819249,6.45264007 C11.6819249,3.21776788 9.33356692,0.871219099 6.10050395,0.871219099 C3.02303326,0.871219099 0.519082981,3.37516938 0.519082981,6.45264007 C0.519082981,8.72501113 3.60559973,12.5732064 5.26464771,14.6411364 L5.38767417,14.7931103 C5.56135859,15.0102158 5.8218852,15.1350515 6.10231316,15.1350515 C6.38093191,15.1350515 6.64145853,15.0102158 6.81695215,14.7931103 L6.93997861,14.6411364 C8.59540817,12.5732064 11.6819249,8.72501113 11.6819249,6.45264007 Z" id="形状" fill="#FFE403"></path>
                        </g>
                        <path d="M24.0715565,5.19507136 C24.7095232,5.19507136 25.2876858,5.45415117 25.7063325,5.87279784 C26.1249791,6.2914445 26.3840589,6.86960709 26.3840589,7.50757376 C26.3840589,8.14554043 26.1249791,8.72370302 25.7063325,9.14234968 C25.2876858,9.56099635 24.7095232,9.82007616 24.0715565,9.82007616 C23.4335899,9.82007616 22.8554273,9.56099635 22.4367806,9.14234968 C22.018134,8.72370302 21.7590541,8.14554043 21.7590541,7.50757376 C21.7590541,6.86960709 22.018134,6.2914445 22.4367806,5.87279784 C22.8554273,5.45415117 23.4335899,5.19507136 24.0715565,5.19507136 Z" id="路径" stroke="#FFFFFF" stroke-width="0.5"></path>
                        <path d="M10.1262651,29.2610115 C11.9217903,30.0574878 13.909218,30.5 16,30.5" id="路径" stroke="#FFE403" stroke-linecap="round"></path>
                        <path d="M19.0128895,30.1865619 C19.9184767,29.9951863 20.792884,29.7192922 21.6274708,29.3675202" id="路径" stroke="#FFE403" stroke-linecap="round"></path>
                        <path d="M24.371719,27.8405472 C25.5702277,26.9916127 26.6342093,25.9652853 27.5254153,24.7998135" id="路径" stroke="#FFE403" stroke-linecap="round"></path>
                    </g>
                </g>
            </g>
        </g>
    </g>
</svg>