<?xml version="1.0" encoding="UTF-8"?>
<svg width="44px" height="44px" viewBox="0 0 44 44" version="1.1" xmlns="http://www.w3.org/2000/svg" xmlns:xlink="http://www.w3.org/1999/xlink">
    <title>icon_copy_head_hover</title>
    <defs>
        <circle id="path-1" cx="12" cy="12" r="12"></circle>
        <filter x="-66.7%" y="-58.3%" width="233.3%" height="233.3%" filterUnits="objectBoundingBox" id="filter-2">
            <feOffset dx="0" dy="2" in="SourceAlpha" result="shadowOffsetOuter1"></feOffset>
            <feGaussianBlur stdDeviation="5" in="shadowOffsetOuter1" result="shadowBlurOuter1"></feGaussianBlur>
            <feComposite in="shadowBlurOuter1" in2="SourceAlpha" operator="out" result="shadowBlurOuter1"></feComposite>
            <feColorMatrix values="0 0 0 0 0   0 0 0 0 0   0 0 0 0 0  0 0 0 0.0445070067 0" type="matrix" in="shadowBlurOuter1"></feColorMatrix>
        </filter>
    </defs>
    <g id="页面-1" stroke="none" stroke-width="1" fill="none" fill-rule="evenodd">
        <g id="003-02地址易详情" transform="translate(-763.000000, -84.000000)">
            <g id="编组-4" transform="translate(96.000000, 72.000000)">
                <g id="icon_copy_head_hover" transform="translate(677.000000, 20.000000)">
                    <g id="椭圆形">
                        <use fill="black" fill-opacity="1" filter="url(#filter-2)" xlink:href="#path-1"></use>
                        <circle stroke-opacity="0.486623484" stroke="#FFFFFF" stroke-width="1" stroke-linejoin="square" fill="#111519" fill-rule="evenodd" cx="12" cy="12" r="11.5"></circle>
                    </g>
                    <g id="复制" transform="translate(5.500000, 5.500000)" fill="#FFFFFF" fill-rule="nonzero">
                        <path d="M4.61496404,0.0104518338 L11.7782747,0.0104518338 C12.4376902,0.0104518338 12.9716844,0.545395607 12.9716844,1.2048124 L12.9716844,8.36717475 C12.9716844,9.02659024 12.4376902,9.56153531 11.7782747,9.56153531 L4.61496404,9.56153531 L4.61496405,9.56153531 C3.95586163,9.56153531 3.42155309,9.02722808 3.42155309,8.36812566 C3.42155309,8.36780882 3.42155309,8.36749198 3.42155309,8.36717514 L3.42155309,1.20481279 C3.42155309,0.545397294 3.95554763,0.00950261178 4.61496313,0.00950261178 L4.61496404,0.0104518338 Z M4.61496404,1.03378249 C4.52089752,1.03378249 4.44393412,1.10979588 4.44393412,1.2048124 L4.44393412,8.36717475 C4.44393412,8.46219153 4.52089765,8.53820466 4.61496404,8.53820466 L11.7782747,8.53820466 C11.8723412,8.53820466 11.9493046,8.46219127 11.9493046,8.36717475 L11.9493046,1.2048124 C11.9493046,1.10979562 11.8723411,1.03378249 11.7782747,1.03378249 L4.61496404,1.03378249 Z M8.53820634,10.5848634 L8.53820634,10.5848634 C8.5382063,10.3025407 8.76707416,10.0736729 9.04939686,10.0736729 C9.33171956,10.0736729 9.56058738,10.3025407 9.56058738,10.5848634 C9.56058738,10.5848634 9.56058738,10.5848634 9.56058738,10.5848634 L9.56058738,11.779224 C9.56058738,12.4386395 9.02659322,12.9726352 8.36717772,12.9726352 L1.20481537,12.9726352 L1.20481543,12.9726352 C0.545714305,12.9736834 0.0105561878,12.4402269 0.00950503622,11.7811258 C0.00950503622,11.7801751 0.00950503622,11.7792243 0.00950503622,11.7782735 L0.00950503622,4.61496285 C0.00950503622,3.95554736 0.544449188,3.4215532 1.20386598,3.4215532 L2.39727564,3.4215532 L2.39727561,3.4215532 C2.67986073,3.4215532 2.90894029,3.65063406 2.90894029,3.93321787 C2.9089403,4.21580299 2.67985943,4.44488255 2.39727561,4.44488255 L1.20481557,4.44488255 C1.10979879,4.44488255 1.03378565,4.52089595 1.03378565,4.61591246 L1.03378565,11.7782748 C1.03378565,11.8723413 1.10979905,11.9493047 1.20481557,11.9493047 L8.36717792,11.9493047 C8.4621947,11.9493047 8.53820783,11.8723412 8.53820783,11.7782748 L8.53820783,10.5839142 L8.53820634,10.5848634 Z" id="形状"></path>
                    </g>
                </g>
            </g>
        </g>
    </g>
</svg>