<?xml version="1.0" encoding="UTF-8"?>
<svg width="40px" height="40px" viewBox="0 0 40 40" version="1.1" xmlns="http://www.w3.org/2000/svg" xmlns:xlink="http://www.w3.org/1999/xlink">
    <title>icon_awitch</title>
    <g id="页面-1" stroke="none" stroke-width="1" fill="none" fill-rule="evenodd">
        <g id="006-02-01查询漏块" transform="translate(-560.000000, -327.000000)">
            <g id="icon_awitch" transform="translate(560.000000, 327.000000)">
                <circle id="椭圆形" stroke="#EFEFEF" stroke-width="1.33333333" fill="#FAFAFA" cx="20" cy="20" r="19.3333333"></circle>
                <g id="箭头" transform="translate(19.833333, 20.333333) rotate(-270.000000) translate(-19.833333, -20.333333) translate(10.333333, 9.333333)" fill="#333333" fill-rule="nonzero">
                    <path d="M17.7434347,8.09527596 L10.304777,0.656618182 C9.72382141,0.0756626263 8.78207253,0.0756626263 8.20111697,0.656618182 L0.762459192,8.09527596 C0.181503636,8.67623152 0.181503636,9.6179804 0.762459192,10.198936 C1.34341475,10.7798915 2.28516364,10.7798915 2.86611919,10.198936 L7.76524141,5.29981374 L7.76524141,19.5612182 C7.76524141,20.3831937 8.43101475,21.0489671 9.2529903,21.0489671 C10.0749659,21.0489671 10.7407392,20.3831937 10.7407392,19.5612182 L10.7407392,5.29981374 L15.6398614,10.198936 C15.9299636,10.4890671 16.3108347,10.6348404 16.6917059,10.6348404 C17.072577,10.6348404 17.4534192,10.4897893 17.7435503,10.198936 C18.3245059,9.6179804 18.3245059,8.67623152 17.7435503,8.09527596 L17.7434347,8.09527596 Z" id="路径"></path>
                </g>
            </g>
        </g>
    </g>
</svg>