<?xml version="1.0" encoding="UTF-8"?>
<svg width="80px" height="81px" viewBox="0 0 80 81" version="1.1" xmlns="http://www.w3.org/2000/svg" xmlns:xlink="http://www.w3.org/1999/xlink">
    <title>img_switch</title>
    <defs>
        <rect id="path-1" x="0" y="1.36424205e-12" width="80" height="80"></rect>
    </defs>
    <g id="页面-1" stroke="none" stroke-width="1" fill="none" fill-rule="evenodd">
        <g id="006-02-01查询漏块" transform="translate(-936.000000, -363.000000)">
            <g id="编组-10" transform="translate(936.000000, 363.500000)">
                <mask id="mask-2" fill="white">
                    <use xlink:href="#path-1"></use>
                </mask>
                <rect stroke="#979797" x="0.5" y="0.5" width="79" height="79"></rect>
                <g id="编组-8" mask="url(#mask-2)">
                    <g transform="translate(0.000000, -3.000000)">
                        <g id="编组-7" stroke="none" stroke-width="1" fill="none" fill-rule="evenodd" transform="translate(46.803154, 47.073160) rotate(-315.000000) translate(-46.803154, -47.073160) translate(8.803154, 19.573160)">
                            <path d="M27.3686083,-9.94688776e-11 C42.4838733,-9.94688776e-11 54.7372167,12.2533433 54.7372167,27.3686083 C54.7372167,42.4838733 42.4838733,54.7372167 27.3686083,54.7372167 C12.2533433,54.7372167 5.45696821e-11,42.4838733 5.45696821e-11,27.3686083 C5.45696821e-11,12.2533433 12.2533433,-9.94688776e-11 27.3686083,-9.94688776e-11 Z M10.1388417,28.3660914 C9.08183883,27.3090885 7.39251663,27.2859862 6.36631678,28.3127563 C5.34040222,29.3386709 5.36407505,31.0285636 6.42022229,32.0847108 C6.73779818,32.4022867 7.11256154,32.6265595 7.50917949,32.7568785 C8.33419759,35.9990809 9.96254597,39.0628164 12.403155,41.6185559 C20.167249,49.7471533 33.1855546,49.9604936 41.4213922,42.096004 C41.5380448,41.9844854 41.652986,41.8723963 41.7665011,41.7588811 C44.8182903,38.7070919 46.8127915,34.8073616 47.5380905,30.4193451 C47.5375104,30.0793056 47.4048757,29.7527829 47.1683831,29.5084418 L47.1683831,29.5084418 L47.0732228,29.4182768 C46.5481595,28.9663831 45.7535238,28.9790154 45.2198717,29.4901188 C44.9529115,29.757079 44.8151531,30.0785151 44.828273,30.4025182 C44.1198015,34.2141174 42.3414926,37.589054 39.6020126,40.1893495 C36.1614768,43.4764403 31.6647937,45.2430554 26.9407952,45.1634807 C22.2207896,45.0821948 17.8359104,43.1695501 14.5927426,39.774078 C12.5134021,37.5956535 11.0429516,34.9151378 10.3217404,32.0004171 C11.2151689,30.9656972 11.1492165,29.3764662 10.1388417,28.3660914 Z M37.6003866,20.3547857 C36.9819472,20.2631072 36.3594343,20.6261867 36.2056862,21.2414467 L36.2056862,21.2414467 L33.2919394,31.2136675 L33.2198604,31.3904892 C32.9089832,32.085423 32.3318654,32.6276266 31.6502479,32.8553589 L31.6502479,32.8553589 L21.5956007,35.8515314 L21.4759211,35.8885415 C20.8949526,36.1033909 20.579936,36.7547149 20.7336842,37.36944 C20.8991083,38.026573 21.5950303,38.394499 22.2524484,38.2322122 L22.2524484,38.2322122 L32.3464545,35.1949692 L32.6223784,35.093577 C33.258094,34.8384132 33.8353002,34.4542739 34.3169977,33.964271 C34.8503477,33.4309209 35.2619115,32.7729323 35.5890519,31.9523718 L35.5890519,31.9523718 L38.6271508,21.8575094 L38.6503459,21.7348562 C38.728767,21.1633805 38.3945459,20.6125718 37.8524479,20.4177107 L37.8524479,20.4177107 L37.72388,20.3792449 Z M34.3997104,16.8086519 C33.9485019,16.3574434 33.3324398,16.2348014 32.7580189,16.3985142 L32.7580189,16.3985142 L22.8682256,19.6405411 L22.6155203,19.7230084 C22.0330472,19.9334844 21.5025959,20.2692535 21.0622509,20.7078117 C20.5702568,21.1998057 20.20119,21.8158679 19.9541947,22.4718599 L19.9541947,22.4718599 L16.712453,32.3630796 L16.6850075,32.5308177 C16.6142569,33.0891235 16.7529275,33.6351078 17.1633763,34.0455566 C17.5737991,34.4559795 18.2303616,34.6196923 18.8047825,34.4554091 L18.8047825,34.4554091 L28.6945758,31.2122414 L28.9252125,31.12771 C29.4625901,30.9124236 29.9919428,30.5708665 30.4586241,30.1041852 C30.9514738,29.6113355 31.319685,28.996129 31.5672507,28.3395665 L31.5672507,28.3395665 L34.809848,18.4503434 L34.8440726,18.3051568 C34.9448909,17.7679631 34.7761928,17.1851343 34.3997104,16.8086519 Z M27.9244979,6.86067563 C22.4478197,6.76541417 17.2403835,8.80583474 13.2605081,12.6071662 C10.6707198,15.0920186 8.77143451,18.2074961 7.74903378,21.6478779 L7.833,21.373 L7.853,21.305 L7.7982819,21.4325719 C7.61625939,21.9146658 7.69554284,22.472864 8.03613227,22.8886607 L8.13549896,22.998365 C8.71191635,23.5747823 9.64627723,23.5747823 10.2226946,22.998365 C10.4243972,22.7966623 10.5555191,22.5511305 10.6151442,22.2915951 C11.5114598,19.4194445 13.1210937,16.8208745 15.2940839,14.7388548 L15.2940839,14.7388548 L15.6098968,14.4442265 C19.0090659,11.3463925 23.3761738,9.68756934 27.9572975,9.76500924 C32.6770179,9.84601 37.0624675,11.7592252 40.3042092,15.1532711 C41.8646984,16.7867961 43.0607312,18.6075191 43.8753894,20.5858965 L43.8753894,20.5858965 L43.7758336,20.6784347 C42.7499191,21.7043493 42.7735918,23.3942419 43.8297391,24.4503892 C44.8864567,25.5071068 46.5757789,25.5302092 47.6016935,24.5042946 C48.6290341,23.476954 48.6059318,21.7876318 47.5492141,20.7309141 C47.2684109,20.4501109 46.9428085,20.2422928 46.59719,20.1073103 C45.6096005,17.4542686 44.1496247,15.1069663 42.2468014,13.1142766 C38.4873964,9.17746852 33.4011761,6.95707795 27.9244979,6.86067563 Z" id="形状结合" fill="#E1E6EC"></path>
                            <path d="M52.0073316,21.3628612 L69.9843431,21.3628612 C73.0219092,21.3628612 75.4843431,23.8252951 75.4843431,26.8628612 L75.4843431,27.8743555 C75.4843431,30.9119216 73.0219092,33.3743555 69.9843431,33.3743555 L52.0073316,33.3743555 L52.0073316,33.3743555 L52.0073316,21.3628612 Z" id="矩形" fill="#E1E6EC"></path>
                        </g>
                        <rect id="矩形" stroke="none" fill="#E1E6EC" fill-rule="evenodd" x="18.8992867" y="69.5507689" width="34.9425287" height="4.36781609" rx="2.18390805"></rect>
                        <circle id="椭圆形" stroke="#E1E6EC" stroke-width="2" fill="none" cx="73.22635" cy="20.2011494" r="2.82183908"></circle>
                        <circle id="椭圆形" stroke="#E1E6EC" stroke-width="2" fill="none" cx="5.73275862" cy="52.1122197" r="3.6408046"></circle>
                        <circle id="椭圆形" stroke="none" fill="#E1E6EC" fill-rule="evenodd" cx="7.64367816" cy="26.7528736" r="2.72988506"></circle>
                    </g>
                </g>
            </g>
        </g>
    </g>
</svg>