<?xml version="1.0" encoding="UTF-8"?>
<svg width="12px" height="12px" viewBox="0 0 12 12" version="1.1" xmlns="http://www.w3.org/2000/svg" xmlns:xlink="http://www.w3.org/1999/xlink">
    <title>language</title>
    <g id="页面-1" stroke="none" stroke-width="1" fill="none" fill-rule="evenodd">
        <g id="001首页" transform="translate(-1121.000000, -1162.000000)" fill="#FFFFFF" fill-rule="nonzero">
            <g id="编组-20" transform="translate(0.000000, 1127.000000)">
                <g id="编组" transform="translate(1105.000000, 25.000000)">
                    <g id="语言" transform="translate(16.000000, 10.000000)">
                        <path d="M10.5237999,9.92713617 C12.0385884,8.16212901 12.3975471,5.68095887 11.445097,3.55900852 C10.4926469,1.43705817 8.40020071,0.0562157813 6.07466148,0.0149627344 C6.01938623,0.00664463571 5.96317742,0.00664463571 5.90790217,0.0149627344 C2.6725852,0.0683884797 0.0617060677,2.67631747 0.00462256641,5.91157196 C0.00118561868,5.94706427 0.00118561868,5.98280562 0.00462256641,6.01829793 C0.0333767678,8.43095088 1.50376379,10.5919492 3.73743242,11.5043337 C5.97110106,12.4167182 8.53395579,11.9031744 10.2436442,10.2006214 L10.4837777,9.94714729 L10.5237999,9.92713617 Z M0.564933855,6.25176096 L3.07966426,6.25176096 C3.09455667,7.07196238 3.19742465,7.88819748 3.38650139,8.6864469 C2.81189813,8.82063955 2.26244162,9.04582664 1.75893052,9.35348414 C1.03785797,8.45933818 0.619721253,7.35910134 0.564933855,6.21173872 L0.564933855,6.25176096 Z M1.75226014,2.58972649 C2.25273719,2.91232766 2.80247622,3.15114871 3.37983102,3.29678598 C3.19488322,4.08657736 3.09426432,4.89376456 3.07966426,5.70479043 L0.564933855,5.70479043 C0.623375028,4.5674325 1.03883515,3.47743319 1.75226014,2.58972649 L1.75226014,2.58972649 Z M11.4443113,5.70479043 L8.9229105,5.70479043 C8.90831044,4.89376456 8.80769154,4.08657736 8.62274374,3.29678598 C9.19962289,3.16315853 9.75136379,2.93795816 10.256985,2.62974873 C10.9667071,3.51646487 11.3797271,4.60385091 11.4376409,5.73814228 L11.4443113,5.70479043 Z M8.37593996,5.70479043 L6.26810228,5.70479043 L6.26810228,3.61029348 C6.87716956,3.60102271 7.4842607,3.53852803 8.08244358,3.42352305 C8.25863251,4.17389068 8.35477842,4.94082203 8.36926959,5.7114608 L8.37593996,5.70479043 Z M6.27477265,3.03664145 L6.27477265,0.581944395 C6.90444497,0.870732145 7.38709996,1.40647918 7.60884714,2.06276707 C7.73130289,2.33133249 7.83602973,2.60763308 7.92235464,2.88989326 C7.37016565,2.99487901 6.81007513,3.05289635 6.24809116,3.06332295 L6.27477265,3.03664145 Z M5.72780211,0.568603652 L5.72780211,3.03664145 C5.1708118,3.03270525 4.6151665,2.98138058 4.06687938,2.88322288 C4.15318618,2.60095651 4.25791346,2.32465475 4.38038688,2.0560967 C4.60576579,1.40353767 5.08757014,0.871143856 5.71446137,0.581944395 L5.72780211,0.568603652 Z M5.72780211,3.59028237 L5.72780211,5.70479043 L3.63330517,5.70479043 C3.64784637,4.93415525 3.74399162,4.16722917 3.92013118,3.41685268 C4.51389754,3.531321 5.1165118,3.59381433 5.72113174,3.60362311 L5.72780211,3.59028237 Z M3.63997554,6.25843133 L5.72113174,6.25843133 L5.72113174,8.39295052 C5.11651585,8.40282686 4.51390745,8.46531958 3.92013118,8.57972094 C3.74163819,7.81846773 3.64547733,7.04023568 3.63330517,6.25843133 L3.63997554,6.25843133 Z M5.72780211,8.92658031 L5.72780211,11.3812774 C5.10091088,11.0920779 4.61910653,10.5596841 4.39372762,9.90712505 C4.27177673,9.64291144 4.16705532,9.3710814 4.08022012,9.09333962 C4.62361238,8.98965546 5.17473079,8.93164299 5.72780211,8.91990994 L5.72780211,8.92658031 Z M6.27477265,11.3879477 L6.27477265,8.93325068 C6.83436262,8.94140472 7.39224212,8.99719267 7.94236576,9.10000999 C7.85551296,9.37774564 7.75079198,9.64957456 7.62885825,9.91379543 C7.40711108,10.5700833 6.92445609,11.1058304 6.29478377,11.3946181 L6.27477265,11.3879477 Z M6.27477265,8.37293939 L6.27477265,6.23842022 L8.37593996,6.23842022 C8.36329122,7.01799094 8.2671335,7.79396136 8.08911395,8.55303945 C7.49094101,8.43796695 6.88384395,8.37547167 6.27477265,8.36626902 L6.27477265,8.37293939 Z M8.94292162,6.23842022 L11.4643224,6.23842022 C11.409535,7.38578283 10.9913983,8.48601966 10.2703257,9.38016562 C9.76697077,9.07219989 9.21746322,8.84699187 8.64275487,8.71312839 C8.83000837,7.9124509 8.93064216,7.09396276 8.94292162,6.27177207 L8.94292162,6.23842022 Z M9.91012562,2.16282266 C9.47266313,2.42716456 8.99832726,2.62499184 8.50267704,2.74981543 C8.29606686,2.01740224 7.93943751,1.33594488 7.45542857,0.748703707 C8.38684688,1.00304205 9.23397319,1.50026837 9.91012562,2.18950416 L9.91012562,2.16282266 Z M4.57382768,0.722022223 C4.0896557,1.30915522 3.73300757,1.99064846 3.52657921,2.72313395 C3.03111531,2.59775037 2.55685989,2.39995665 2.11913062,2.13614118 C2.79994351,1.46147685 3.64664984,0.978302038 4.57382768,0.735362965 L4.57382768,0.722022223 Z M2.125801,9.81373984 C2.56153483,9.55224114 3.03357653,9.35668101 3.52657921,9.23341744 C3.73282528,9.96597539 4.08949226,10.6475046 4.57382768,11.2345292 C3.6455109,10.9810078 2.80087768,10.4861954 2.125801,9.8003991 L2.125801,9.81373984 Z M7.46209895,11.2478699 C7.94643437,10.6608454 8.30310134,9.97931613 8.50934741,9.24675818 C9.00426262,9.37060118 9.47842243,9.56610784 9.91679599,9.82708058 C9.24171932,10.5128769 8.3970861,11.0076893 7.46876932,11.2612107 L7.46209895,11.2478699 Z" id="language"></path>
                    </g>
                </g>
            </g>
        </g>
    </g>
</svg>