<?xml version="1.0" encoding="UTF-8"?>
<svg width="35px" height="30px" viewBox="0 0 35 30" version="1.1" xmlns="http://www.w3.org/2000/svg" xmlns:xlink="http://www.w3.org/1999/xlink">
    <title>icon_more</title>
    <g id="2.0" stroke="none" stroke-width="1" fill="none" fill-rule="evenodd">
        <g id="移动端" transform="translate(-675.000000, -39.000000)" fill="#FFFFFF" fill-rule="nonzero">
            <g id="icon_more" transform="translate(675.000000, 39.500000)">
                <g id="更多" transform="translate(0.272727, 0.727273)">
                    <path d="M1.71757266,3.43681573 L31.7369728,3.43681573 C32.6870179,3.43681573 33.4545455,2.66711188 33.4545455,1.71840786 C33.4545455,0.770150334 32.6874525,0 31.7369728,0 L1.71757266,0 C0.769269407,0 0,0.769703846 0,1.71840786 C0,2.66711188 0.769269407,3.43681573 1.71757266,3.43681573 L1.71757266,3.43681573 Z M31.7365348,12.0288377 L1.71757266,12.0288377 C0.76709297,12.0288377 3.55271368e-15,12.7985416 3.55271368e-15,13.7472456 C3.55271368e-15,14.6959496 0.76709297,15.4656535 1.71757266,15.4656535 L31.7369728,15.4656535 C32.6870179,15.4656535 33.4545455,14.6959496 33.4545455,13.7472456 C33.4541099,12.7985416 32.682227,12.0288377 31.7365382,12.0288377 L31.7365348,12.0288377 Z M31.7365348,24.1995479 L1.71757266,24.1995479 C0.769707389,24.1995479 3.55271368e-15,24.9692518 3.55271368e-15,25.9179558 C3.55271368e-15,26.8666598 0.769269407,27.6363636 1.71757266,27.6363636 L31.7369728,27.6363636 C32.6870179,27.6363636 33.4545455,26.8666598 33.4545455,25.9179558 C33.4541099,24.9696982 32.6870179,24.1995479 31.7365382,24.1995479 L31.7365348,24.1995479 Z" id="形状"></path>
                </g>
            </g>
        </g>
    </g>
</svg>