<?xml version="1.0" encoding="UTF-8"?>
<svg width="70px" height="67px" viewBox="0 0 70 67" version="1.1" xmlns="http://www.w3.org/2000/svg" xmlns:xlink="http://www.w3.org/1999/xlink">
    <title>No data</title>
    <g id="页面-1" stroke="none" stroke-width="1" fill="none" fill-rule="evenodd">
        <g id="006-02-03查询漏块" transform="translate(-941.000000, -370.000000)" fill="#E1E6EC">
            <g id="No-data" transform="translate(941.000000, 370.000000)">
                <path d="M33,2 C33,0.89543 33.8954,0 35,0 C36.1045,0 37,0.89543 37,2 L37,10 C37,11.1046 36.1045,12 35,12 C33.8954,12 33,11.1046 33,10 L33,2 Z" id="路径" fill-rule="nonzero"></path>
                <path d="M14,8.7321 C13.4477,7.7755 13.7754,6.5523 14.732,6 C15.6886,5.4477 16.9118,5.7755 17.4641,6.7321 L20.9641,12.7942 C21.5164,13.7508 21.1886,14.974 20.232,15.5263 C19.2754,16.0786 18.0523,15.7508 17.5,14.7942 L14,8.7321 Z" id="路径" fill-rule="nonzero"></path>
                <path d="M55.9638,8.7321 C56.5161,7.7755 56.1884,6.5523 55.2318,6 C54.2752,5.4477 53.052,5.7755 52.4997,6.7321 L48.9997,12.7942 C48.4475,13.7508 48.7752,14.974 49.7318,15.5263 C50.6884,16.0786 51.9116,15.7508 52.4638,14.7942 L55.9638,8.7321 Z" id="路径" fill-rule="nonzero"></path>
                <path d="M15.2171,21 C13.6859,21 12.2936,21.8649 11.6248,23.2423 C8.884,28.8868 1.79287,43.5071 0,47.3667 L0,63 C0,65.2091 1.79086,67 4,67 L66,67 C68.2091,67 70,65.2091 70,63 L70,47.3667 C68.1325,43.3369 61.1015,28.8502 58.3754,23.2407 C57.7064,21.864 56.3146,21 54.784,21 L15.2171,21 Z M17.7615,29 L12.051,41 L21.0255,41 C21.7851,41 22.479,41.4302 22.8168,42.1105 L26.1832,48.8895 C26.521,49.5698 27.2149,50 27.9745,50 L42.0255,50 C42.7851,50 43.479,49.5698 43.8168,48.8895 L47.1832,42.1105 C47.521,41.4302 48.2149,41 48.9745,41 L57.949,41 L52.2385,29 L17.7615,29 Z M10,56.5 C8.8954,56.5 8,57.3954 8,58.5 C8,59.6046 8.8954,60.5 10,60.5 L60,60.5 C61.1046,60.5 62,59.6046 62,58.5 C62,57.3954 61.1046,56.5 60,56.5 L10,56.5 Z" id="形状"></path>
            </g>
        </g>
    </g>
</svg>