<?xml version="1.0" encoding="UTF-8"?>
<svg width="16px" height="16px" viewBox="0 0 16 16" version="1.1" xmlns="http://www.w3.org/2000/svg" xmlns:xlink="http://www.w3.org/1999/xlink">
    <title>?</title>
    <g id="页面-1" stroke="none" stroke-width="1" fill="none" fill-rule="evenodd">
        <g id="006-03-02搜索事件/交易" transform="translate(-206.000000, -183.000000)">
            <g id="编组-3" transform="translate(96.000000, 72.000000)">
                <g id="?" transform="translate(110.000000, 111.000000)">
                    <circle id="椭圆形" stroke="#DBDBDB" fill="#F9F9F9" cx="8" cy="8" r="7.5"></circle>
                    <path d="M8.57,10.004 L8.57,9.8 C8.57,9.5 8.63,9.236 8.762,8.996 C8.87,8.78 9.038,8.576 9.254,8.384 C9.83,7.892 10.166,7.58 10.274,7.448 C10.562,7.064 10.718,6.572 10.718,5.984 C10.718,5.264 10.478,4.688 10.01,4.268 C9.53,3.836 8.906,3.632 8.126,3.632 C7.25,3.632 6.554,3.884 6.05,4.4 C5.534,4.904 5.282,5.588 5.282,6.464 L6.554,6.464 C6.554,5.936 6.662,5.516 6.878,5.228 C7.118,4.892 7.514,4.724 8.054,4.724 C8.486,4.724 8.822,4.844 9.062,5.084 C9.29,5.324 9.41,5.648 9.41,6.068 C9.41,6.38 9.302,6.668 9.086,6.944 L8.882,7.172 C8.138,7.832 7.682,8.324 7.514,8.66 C7.358,8.972 7.286,9.356 7.286,9.8 L7.286,10.004 L8.57,10.004 Z M7.922,12.368 C8.162,12.368 8.378,12.284 8.558,12.128 C8.726,11.96 8.81,11.756 8.81,11.504 C8.81,11.252 8.726,11.048 8.558,10.892 C8.39,10.724 8.174,10.652 7.922,10.652 C7.67,10.652 7.466,10.724 7.31,10.892 C7.13,11.048 7.046,11.252 7.046,11.504 C7.046,11.744 7.13,11.948 7.31,12.116 C7.466,12.284 7.67,12.368 7.922,12.368 Z" fill="#080810" fill-rule="nonzero"></path>
                </g>
            </g>
        </g>
    </g>
</svg>