<?xml version="1.0" encoding="UTF-8"?>
<svg width="40px" height="40px" viewBox="0 0 40 40" version="1.1" xmlns="http://www.w3.org/2000/svg" xmlns:xlink="http://www.w3.org/1999/xlink">
    <title>资源 2 copy</title>
    <g id="页面-1" stroke="none" stroke-width="1" fill="none" fill-rule="evenodd">
        <g id="006-01-02SS58账号转换" transform="translate(-664.000000, -304.000000)" fill-rule="nonzero">
            <g id="编组-3" transform="translate(96.000000, 72.000000)">
                <g id="编组-4" transform="translate(536.000000, 212.000000)">
                    <g id="资源-2-copy" transform="translate(32.000000, 20.000000)">
                        <path d="M20,0 C31.045695,-2.02906125e-15 40,8.954305 40,20 C40,31.045695 31.045695,40 20,40 C8.954305,40 1.3527075e-15,31.045695 0,20 C-1.3527075e-15,8.954305 8.954305,2.02906125e-15 20,0 Z" id="Rectangle-path" fill="#F2F2F2" transform="translate(20.000000, 20.000000) rotate(-90.000000) translate(-20.000000, -20.000000) "></path>
                        <circle id="Oval" fill="#0FD1FE" cx="7.5" cy="25.8333333" r="2.5"></circle>
                        <circle id="Oval" fill="#AB29B2" cx="7.5" cy="19.1666667" r="2.5"></circle>
                        <circle id="Oval" fill="#344C01" cx="7.5" cy="12.5" r="2.5"></circle>
                        <circle id="Oval" fill="#4D4D4D" cx="12.5" cy="29.1666667" r="2.5"></circle>
                        <circle id="Oval" fill="#004C45" cx="12.5" cy="22.5" r="2.5"></circle>
                        <circle id="Oval" fill="#7FACFE" cx="12.5" cy="15.8333333" r="2.5"></circle>
                        <circle id="Oval" fill="#BFFB81" cx="12.5" cy="9.16666667" r="2.5"></circle>
                        <circle id="Oval" fill="#17FA76" cx="19.1666667" cy="34.1666667" r="2.5"></circle>
                        <circle id="Oval" fill="#BF81FE" cx="19.1666667" cy="25.8333333" r="2.5"></circle>
                        <circle id="Oval" fill="#D64CA8" cx="19.1666667" cy="19.1666667" r="2.5"></circle>
                        <circle id="Oval" fill="#4D4D4D" cx="19.1666667" cy="12.5" r="2.5"></circle>
                        <circle id="Oval" fill="#FE80B1" cx="19.1666667" cy="5.83333333" r="2.5"></circle>
                        <circle id="Oval" fill="#04B21A" cx="25.8333333" cy="29.1666667" r="2.5"></circle>
                        <circle id="Oval" fill="#004C45" cx="25.8333333" cy="22.5" r="2.5"></circle>
                        <circle id="Oval" fill="#7FACFE" cx="25.8333333" cy="15.8333333" r="2.5"></circle>
                        <circle id="Oval" fill="#BFFB81" cx="25.8333333" cy="9.16666667" r="2.5"></circle>
                        <circle id="Oval" fill="#0FD1FE" cx="32.5" cy="25.8333333" r="2.5"></circle>
                        <circle id="Oval" fill="#AB29B2" cx="32.5" cy="19.1666667" r="2.5"></circle>
                        <circle id="Oval" fill="#344C01" cx="32.5" cy="12.5" r="2.5"></circle>
                    </g>
                </g>
            </g>
        </g>
    </g>
</svg>