<?xml version="1.0" encoding="UTF-8"?>
<svg width="52px" height="52px" viewBox="0 0 52 52" version="1.1" xmlns="http://www.w3.org/2000/svg" xmlns:xlink="http://www.w3.org/1999/xlink">
    <title>twitter</title>
    <defs>
        <path d="M16,0 C7.163444,0 0,7.163444 0,16 C0,24.836556 7.163444,32 16,32 C24.836556,32 32,24.836556 32,16 C32,11.7565362 30.3142906,7.68687356 27.3137085,4.6862915 C24.3131264,1.68570945 20.2434638,0 16,0 Z" id="path-1"></path>
        <filter x="-50.0%" y="-43.8%" width="200.0%" height="200.0%" filterUnits="objectBoundingBox" id="filter-2">
            <feOffset dx="0" dy="2" in="SourceAlpha" result="shadowOffsetOuter1"></feOffset>
            <feGaussianBlur stdDeviation="5" in="shadowOffsetOuter1" result="shadowBlurOuter1"></feGaussianBlur>
            <feComposite in="shadowBlurOuter1" in2="SourceAlpha" operator="out" result="shadowBlurOuter1"></feComposite>
            <feColorMatrix values="0 0 0 0 0   0 0 0 0 0   0 0 0 0 0  0 0 0 0.0445070067 0" type="matrix" in="shadowBlurOuter1"></feColorMatrix>
        </filter>
    </defs>
    <g id="页面-1" stroke="none" stroke-width="1" fill="none" fill-rule="evenodd">
        <g id="001首页" transform="translate(-18.000000, -1144.000000)">
            <g id="编组-20" transform="translate(0.000000, 1127.000000)">
                <g id="twitter" transform="translate(28.000000, 25.000000)">
                    <g id="形状">
                        <use fill="black" fill-opacity="1" filter="url(#filter-2)" xlink:href="#path-1"></use>
                        <path stroke-opacity="0.175359553" stroke="#E9E9E9" stroke-width="1" d="M16,0.5 C20.1108556,0.5 24.0533412,2.13303103 26.9601551,5.03984489 C29.866969,7.94665876 31.5,11.8891444 31.5,16 C31.5,20.2802068 29.7651034,24.1552068 26.9601551,26.9601551 C24.1552068,29.7651034 20.2802068,31.5 16,31.5 C11.7197932,31.5 7.84479319,29.7651034 5.03984489,26.9601551 C2.23489659,24.1552068 0.5,20.2802068 0.5,16 C0.5,11.7197932 2.23489659,7.84479319 5.03984489,5.03984489 C7.84479319,2.23489659 11.7197932,0.5 16,0.5 Z" stroke-linejoin="square" fill-opacity="0.08" fill="#FFFFFF" fill-rule="evenodd"></path>
                    </g>
                    <path d="M22.39,13.51 C22.39,13.65 22.39,13.79 22.39,13.94 C22.3880513,17.3559158 20.523438,20.4988997 17.5264526,22.1379737 C14.5294673,23.7770477 10.8771639,23.6513074 8,21.81 C9.73908051,22.0155747 11.4890573,21.5268748 12.87,20.45 C11.4646988,20.4238038 10.2312454,19.5077537 9.8,18.17 C10.0042778,18.2097436 10.211892,18.2298353 10.42,18.23 C10.7141456,18.2303021 11.0069195,18.1899195 11.29,18.11 C9.75632333,17.8009034 8.65244995,16.4545123 8.65,14.89 L8.65,14.89 C9.10706922,15.14303 9.61782512,15.2835735 10.14,15.3 C8.70076904,14.329599 8.26304837,12.4080052 9.14,10.91 C10.8099389,12.9662235 13.2744436,14.2166506 15.92,14.35 C15.5833816,12.901561 16.2601933,11.4073918 17.5709891,10.7051797 C18.881785,10.0029677 20.5006551,10.2673074 21.52,11.35 C22.2572905,11.2048183 22.9642101,10.934227 23.61,10.55 C23.3645138,11.3130468 22.8489042,11.9602258 22.16,12.37 C22.7975154,12.2747472 23.4175108,12.086053 24,11.81 C23.5679344,12.4672958 23.022846,13.042855 22.39,13.51 Z" id="路径" fill="#FFFFFF" fill-rule="nonzero"></path>
                </g>
            </g>
        </g>
    </g>
</svg>