<?xml version="1.0" encoding="UTF-8"?>
<svg width="52px" height="52px" viewBox="0 0 52 52" version="1.1" xmlns="http://www.w3.org/2000/svg" xmlns:xlink="http://www.w3.org/1999/xlink">
    <title>wechat</title>
    <defs>
        <path d="M16,32.0000072 C7.32009285,32.0028124 0.220964468,25.0843892 2.18124987e-05,16.407294 L2.18124987e-05,15.6363859 C0.199765371,6.84995254 7.44921968,-0.13055195 16.2369257,0.00186017583 C25.0246316,0.134272302 32.0604798,7.33002605 31.9954068,16.1184887 C31.9303339,24.9069513 24.7887032,31.9977299 16,32.0000072 L16,32.0000072 Z" id="path-1"></path>
        <filter x="-50.0%" y="-43.7%" width="200.0%" height="200.0%" filterUnits="objectBoundingBox" id="filter-2">
            <feOffset dx="0" dy="2" in="SourceAlpha" result="shadowOffsetOuter1"></feOffset>
            <feGaussianBlur stdDeviation="5" in="shadowOffsetOuter1" result="shadowBlurOuter1"></feGaussianBlur>
            <feComposite in="shadowBlurOuter1" in2="SourceAlpha" operator="out" result="shadowBlurOuter1"></feComposite>
            <feColorMatrix values="0 0 0 0 0   0 0 0 0 0   0 0 0 0 0  0 0 0 0.0445070067 0" type="matrix" in="shadowBlurOuter1"></feColorMatrix>
        </filter>
    </defs>
    <g id="页面-1" stroke="none" stroke-width="1" fill="none" fill-rule="evenodd">
        <g id="001首页" transform="translate(-186.000000, -1144.000000)">
            <g id="编组-20" transform="translate(0.000000, 1127.000000)">
                <g id="编组-25" transform="translate(28.000000, 25.000000)">
                    <g id="wechat" transform="translate(168.000000, 0.000000)">
                        <g id="形状">
                            <use fill="black" fill-opacity="1" filter="url(#filter-2)" xlink:href="#path-1"></use>
                            <path stroke-opacity="0.175359553" stroke="#E9E9E9" stroke-width="1" d="M15.8186543,0.500952744 L16.2293926,0.501803425 C20.4859375,0.565940546 24.3182043,2.34073064 27.078455,5.1637143 C29.8387057,7.98669797 31.5269402,11.8578752 31.4954205,16.1147866 C31.4639009,20.3716976 29.7185277,24.2174509 26.9167776,26.9992523 C24.1150269,29.7810544 20.2568989,31.4989041 15.9998384,31.5000072 C11.795508,31.501366 7.97402258,29.8264895 5.17686511,27.1005311 C2.38110879,24.3759383 0.608654488,20.6013163 0.500021812,16.4008798 L0.500021812,16.4008798 L0.500021812,15.6421127 C0.598236726,11.3884494 2.40200167,7.57205689 5.24479703,4.8347273 C8.08884809,2.0961886 11.9728477,0.437666305 16.2293926,0.501803425 Z" stroke-linejoin="square" fill-opacity="0.08" fill="#FFFFFF" fill-rule="evenodd"></path>
                        </g>
                        <path d="M19.8667097,13.0418261 C22.9318085,12.9711969 25.5031197,15.3389459 25.6849561,18.3994614 C25.5797643,20.0158645 24.7810444,21.5030305 23.5024374,22.4833108 L23.2849294,22.6419327 L23.8061474,24.4964988 L21.9273386,23.3813349 C21.2595887,23.595119 20.566939,23.7214257 19.8667097,23.7570967 C17.8437773,23.9293779 15.8962894,22.9475585 14.8317823,21.2187552 C13.7672752,19.4899519 13.7672752,17.3089708 14.8317823,15.5801675 C15.8962894,13.8513642 17.8437773,12.8695448 19.8667097,13.0418261 Z M12.9399336,7.49615599 L13.1757262,7.50237057 C16.4122861,7.39153709 19.2885798,9.55128046 20.0848939,12.690307 C19.9401447,12.6714977 19.7947759,12.6580339 19.6490841,12.6499376 L19.4303412,12.6418216 L19.3939771,12.6418216 C17.850878,12.6482378 16.3735306,13.2673918 15.2869412,14.363074 C14.2003519,15.4587562 13.5935304,16.9412118 13.5999733,18.4843108 C13.6020802,19.0081688 13.6713322,19.5295957 13.8060362,20.0358432 C13.5999733,20.0479645 13.3817891,20.0600859 13.1757262,20.0600859 C12.496424,20.0349592 11.8212887,19.9460601 11.159197,19.7947268 L10.7635782,19.6964455 L8.37567284,20.9934296 L9.06658961,18.7752231 C7.38750933,17.6610646 6.35982407,15.7958385 6.31504388,13.7812282 C6.4697848,10.3110954 9.28622109,7.58879084 12.7058655,7.49823034 L12.9399336,7.49615599 Z M21.8543023,15.9909357 L21.7455184,15.9994347 C21.3905845,16.0671432 21.1338338,16.3775024 21.1338338,16.7388368 C21.1338338,17.1001712 21.3905845,17.4105305 21.7455184,17.478239 C22.03642,17.5224354 22.3262049,17.391953 22.4859406,17.1448465 C22.6456762,16.8977401 22.6456762,16.5799336 22.4859406,16.3328271 C22.3262049,16.0857207 22.03642,15.9552382 21.7455184,15.9994347 Z M18.0845635,15.9909357 L17.9757795,15.9994347 L17.8060807,15.9994347 C17.4172039,16.0674465 17.1535948,16.4332713 17.2121347,16.8236863 C17.2227903,17.0132199 17.3102944,17.1902069 17.4544263,17.3137485 C17.5985582,17.4372901 17.786846,17.4966962 17.9757795,17.478239 C18.2666811,17.5224354 18.556466,17.391953 18.7162017,17.1448465 C18.8759373,16.8977401 18.8759373,16.5799336 18.7162017,16.3328271 C18.556466,16.0857207 18.2666811,15.9552382 17.9757795,15.9994347 Z M10.9453984,10.6417994 C10.5914704,10.6055587 10.2477796,10.7739486 10.0595153,11.0758342 C9.8712509,11.3777199 9.8712509,11.760445 10.0595153,12.0623306 C10.2477796,12.3642163 10.5914704,12.5326062 10.9453984,12.4963655 C11.4388632,12.4721469 11.8218199,12.0568277 11.806014,11.5630218 C11.8216858,11.0713804 11.4369683,10.6595701 10.9453984,10.6417994 Z M15.7454517,10.6417994 C15.2088527,10.6181886 14.7514791,11.0271344 14.7151372,11.5630218 C14.7507979,12.1010211 15.2065565,12.5138848 15.7454517,12.4963655 C16.2258432,12.4537796 16.5941692,12.0513578 16.5941692,11.5690824 C16.5941692,11.0868071 16.2258432,10.6843852 15.7454517,10.6417994 Z" id="形状结合" fill="#FFFFFF" fill-rule="nonzero"></path>
                    </g>
                </g>
            </g>
        </g>
    </g>
</svg>